<svg id="amenajarea_domeniului_public" data-name="amenajarea domeniului public" xmlns="http://www.w3.org/2000/svg" width="63.001" height="63.001" viewBox="0 0 63.001 63.001">
  <path id="Path_1821" data-name="Path 1821" d="M62.078,61.155H54.634V48.528C59.325,48.009,63,43.573,63,38.194c0-5.29-3.557-9.665-8.137-10.3a8.639,8.639,0,0,0,1.779-4.023.923.923,0,0,0-1.823-.291,6.836,6.836,0,0,1-4.413,5.329,1.677,1.677,0,0,0-1.072,1.252,5.642,5.642,0,0,1-2.888,4.065,5.419,5.419,0,0,1-4.252.067,5.633,5.633,0,0,1-2.374-1.8V28.5l4.032-4.031a.923.923,0,0,0-1.305-1.305l-2.727,2.726v-6.11a.923.923,0,1,0-1.846,0V24.12l-2.726-2.726A.923.923,0,1,0,33.944,22.7l4.032,4.032v5.76a5.648,5.648,0,0,1-2.373,1.8,5.42,5.42,0,0,1-4.253-.066,4.861,4.861,0,0,1-2.1-1.977c.161-4.079-1.019-10.04-2.772-15.753a6.863,6.863,0,0,1,.739-.346,1.928,1.928,0,0,0,1.216-2.023,4.1,4.1,0,0,1-.029-.488,4.054,4.054,0,0,1,3.084-3.944,1.96,1.96,0,0,0,1.484-1.917,5.93,5.93,0,1,1,11.861.01,1.957,1.957,0,0,0,1.484,1.907,4.063,4.063,0,0,1,3.055,4.429,1.931,1.931,0,0,0,1.216,2.025A6.86,6.86,0,0,1,54.4,19.921a.923.923,0,1,0,1.709-.7,8.714,8.714,0,0,0-4.854-4.794.09.09,0,0,1-.06-.086A5.906,5.906,0,0,0,46.756,7.9a.122.122,0,0,1-.081-.126,7.776,7.776,0,1,0-15.552.01.118.118,0,0,1-.081.116,5.9,5.9,0,0,0-4.486,5.735,5.974,5.974,0,0,0,.043.709c.019.16-.568.292-.7.37-.23-.68-.467-1.348-.712-2C21.23,2.206,17.263,0,14.631,0c-4.593,0-8.1,6.471-10.242,11.9a.923.923,0,1,0,1.717.676C8.791,5.757,11.9,1.846,14.631,1.846c2.854,0,6.073,4.2,8.829,11.52,2.6,6.9,3.956,14.346,3.956,18.14,0,7.591-5.242,13.828-11.862,14.363V38.38h0V34.85L19.405,31A.923.923,0,0,0,18.1,29.693L15.554,32.24V28.381a.923.923,0,0,0-1.846,0v6.087h0v1.683L11.162,33.6A.923.923,0,1,0,9.857,34.91l3.852,3.852v7.108C7.087,45.335,1.846,39.1,1.846,31.506c0-3.566,1.147-9.576,2.854-14.955a.923.923,0,0,0-1.759-.558C1.154,21.621,0,27.711,0,31.506,0,40.121,6.069,47.189,13.708,47.72V61.155H.923A.923.923,0,1,0,.923,63H62.078a.923.923,0,1,0,0-1.846Zm-24.1,0H15.554V47.72c6.635-.461,12.085-5.855,13.4-12.909a6.518,6.518,0,0,0,1.6,1.077,7.361,7.361,0,0,0,7.423-.833Zm14.813,0H39.821v-26.1a7.319,7.319,0,0,0,1.694.95,7.82,7.82,0,0,0,2.811.536,8.377,8.377,0,0,1,.095,1.653c0,5.378,3.676,9.814,8.367,10.334Zm.923-23.6a.923.923,0,0,0-.923.923v5.073h0v3.112c-3.671-.523-6.522-4.122-6.522-8.472a9.728,9.728,0,0,1,.206-2c2.826-.946,4.448-4.259,4.654-5.591a8.674,8.674,0,0,0,1.758-.9c4.481-.578,8.271,3.492,8.271,8.486,0,4.35-2.851,7.948-6.522,8.472v-2.73l2.918-2.918a.923.923,0,0,0-1.305-1.305l-1.613,1.613V38.48A.923.923,0,0,0,53.711,37.557Z" transform="translate(0 0)" fill="#02ab29"/>
</svg>
