<svg xmlns="http://www.w3.org/2000/svg" width="17.317" height="17.317" viewBox="0 0 17.317 17.317">
  <path id="Icon_awesome-arrow-alt-circle-right" data-name="Icon awesome-arrow-alt-circle-right" d="M9.221.563A8.659,8.659,0,1,1,.563,9.221,8.657,8.657,0,0,1,9.221.563ZM5.171,10.757h4.05v2.475a.419.419,0,0,0,.716.3l3.991-4.012a.415.415,0,0,0,0-.59L9.937,4.913a.419.419,0,0,0-.716.3V7.685H5.171a.42.42,0,0,0-.419.419v2.234A.42.42,0,0,0,5.171,10.757Z" transform="translate(-0.563 -0.563)" fill="#039"/>
</svg>
