<svg xmlns="http://www.w3.org/2000/svg" width="63.001" height="59.064" viewBox="0 0 63.001 59.064">
  <g id="asistenta_sociala" data-name="asistenta sociala" transform="translate(0)">
    <path id="Path_1822" data-name="Path 1822" d="M210.766,23.383a7.383,7.383,0,1,0-7.383,7.383A7.391,7.391,0,0,0,210.766,23.383ZM203.383,28.3a4.922,4.922,0,1,1,4.922-4.922A4.928,4.928,0,0,1,203.383,28.3Z" transform="translate(-171.882 -16)"/>
    <path id="Path_1823" data-name="Path 1823" d="M188.149,152v-4.922a11.074,11.074,0,0,0-22.149,0V152a1.231,1.231,0,0,0,1.23,1.23h19.688A1.231,1.231,0,0,0,188.149,152Zm-2.461-1.231H168.461v-3.691a8.613,8.613,0,1,1,17.227,0Z" transform="translate(-145.574 -121.234)"/>
    <path id="Path_1824" data-name="Path 1824" d="M8.842,151.944l5.924,2.961v6.622A1.231,1.231,0,0,0,16,162.759H29.04a1.231,1.231,0,0,0,1.23-1.231V145.874a7.649,7.649,0,0,0-6.57-7.681c-.1-.018-4.756-.366-7.007-2.616l-3.369-3.369a4.889,4.889,0,0,0-3.48-1.442v-9.844a4.922,4.922,0,1,0-9.844,0v16.715a16,16,0,0,0,8.842,14.307ZM2.461,120.922a2.461,2.461,0,0,1,4.922,0v10.5a4.921,4.921,0,0,0-1.019,7.742l6.3,6.3a1.23,1.23,0,0,0,1.74-1.74l-6.3-6.3a2.461,2.461,0,0,1,.919-4.061h0a2.458,2.458,0,0,1,2.559.582l3.369,3.369c2.295,2.293,5.639,2.938,8.47,3.321l.014,0a5.165,5.165,0,0,1,4.372,5.234V160.3H17.227v-6.152a1.23,1.23,0,0,0-.68-1.1l-6.6-3.3a13.463,13.463,0,0,1-7.482-12.106Z" transform="translate(0 -103.695)"/>
    <ellipse id="Ellipse_12" data-name="Ellipse 12" cx="1.184" cy="0.888" rx="1.184" ry="0.888" transform="translate(55.304 44.293)"/>
    <path id="Path_1825" data-name="Path 1825" d="M291.348,116a4.928,4.928,0,0,0-4.922,4.922v9.844a4.889,4.889,0,0,0-3.48,1.442l-3.369,3.369c-1.964,1.963-5.149,2.29-7.008,2.616a7.649,7.649,0,0,0-6.57,7.681v15.654a1.231,1.231,0,0,0,1.231,1.231h13.043a1.231,1.231,0,0,0,1.23-1.231v-6.622l4.027-2.013a1.231,1.231,0,0,0-1.1-2.2l-4.708,2.353a1.231,1.231,0,0,0-.68,1.1V160.3H268.461V145.874a5.166,5.166,0,0,1,4.372-5.234l.014,0c2.875-.388,6.178-1.03,8.471-3.321l3.369-3.369a2.459,2.459,0,0,1,2.559-.582h0a2.461,2.461,0,0,1,.919,4.061l-6.3,6.3a1.23,1.23,0,1,0,1.74,1.74l6.3-6.3a4.921,4.921,0,0,0-1.019-7.742v-10.5a2.461,2.461,0,1,1,4.922,0v16.715a13.572,13.572,0,0,1-1.643,6.464,1.231,1.231,0,0,0,2.162,1.175,16.041,16.041,0,0,0,1.942-7.639V120.922A4.928,4.928,0,0,0,291.348,116Z" transform="translate(-233.269 -103.695)"/>
  </g>
</svg>
