<svg xmlns="http://www.w3.org/2000/svg" width="10.899" height="12.456" viewBox="0 0 10.899 12.456">
  <path id="Icon_metro-attachment" data-name="Icon metro-attachment" d="M11.245,5.906l-.79-.79L6.5,9.067a1.676,1.676,0,1,0,2.371,2.37L13.616,6.7a2.793,2.793,0,0,0-3.951-3.95L4.687,7.724l-.011.01a3.9,3.9,0,0,0,5.51,5.509l.01-.011h0l3.4-3.4-.791-.79-3.4,3.4-.01.01a2.779,2.779,0,0,1-3.93-3.929l.011-.01h0l4.979-4.977a1.676,1.676,0,1,1,2.371,2.37L8.084,10.647a.559.559,0,0,1-.79-.79l3.951-3.951Z" transform="translate(-3.535 -1.928)"/>
</svg>
