<svg xmlns="http://www.w3.org/2000/svg" width="63.002" height="62.889" viewBox="0 0 63.002 62.889">
  <g id="cultura" transform="translate(0.001)">
    <path id="Path_1828" data-name="Path 1828" d="M31.5,4.652a3.691,3.691,0,1,0,3.691,3.691A3.7,3.7,0,0,0,31.5,4.652Zm0,5.537a1.846,1.846,0,1,1,1.846-1.846A1.848,1.848,0,0,1,31.5,10.19ZM63,14.543a.93.93,0,0,0-.566-.837L32.362.637a2.159,2.159,0,0,0-1.72,0L.568,13.706A.932.932,0,0,0,0,14.571v3.017a3.388,3.388,0,0,0,3.384,3.384h.727A3.5,3.5,0,0,0,8,26.044V52.354a1.989,1.989,0,0,0-2.338,1.907v1.749H3.385A3.388,3.388,0,0,0,0,59.394v2.414a1.54,1.54,0,0,0,1.538,1.538H61.464A1.54,1.54,0,0,0,63,61.809V59.394a3.388,3.388,0,0,0-3.384-3.384H57.342V54.262A1.982,1.982,0,0,0,55,52.354V26.044a3.5,3.5,0,0,0,3.888-5.072h.727A3.388,3.388,0,0,0,63,17.588V14.571c0-.008,0-.006,0-.028ZM7.2,24.294a1.661,1.661,0,0,1,0-3.322H17.17a1.661,1.661,0,1,1-1.632,1.988.923.923,0,0,0-1.811.357,3.48,3.48,0,0,0,.793,1.616v15.93a.923.923,0,0,0,1.846,0V26.044a3.5,3.5,0,0,0,3.888-5.072H23.43a3.5,3.5,0,0,0,3.888,5.072V52.354a1.989,1.989,0,0,0-2.338,1.907v1.749H18.7V54.262a1.982,1.982,0,0,0-2.338-1.907V45.169a.923.923,0,1,0-1.846,0v7.185H9.845V24.933a3.479,3.479,0,0,0,.793-1.616.923.923,0,0,0-1.811-.357A1.661,1.661,0,0,1,7.2,24.294Zm32.374-3.322h3.176a3.5,3.5,0,0,0,3.888,5.072V52.354A1.988,1.988,0,0,0,44.3,54.262v1.749H38.023V54.262a1.982,1.982,0,0,0-2.338-1.907V26.044a3.5,3.5,0,0,0,3.888-5.072Zm-3.4,33.29v1.749H26.826V54.262a.062.062,0,0,1,.062-.062h9.229A.062.062,0,0,1,36.177,54.262Zm.308-29.968a1.661,1.661,0,0,1-1.628-1.334.923.923,0,0,0-1.811.357,3.48,3.48,0,0,0,.793,1.616V52.354H29.164V24.933a3.479,3.479,0,0,0,.793-1.616.923.923,0,0,0-1.811-.357,1.661,1.661,0,1,1-1.632-1.988h9.974a1.661,1.661,0,0,1,0,3.322ZM7.507,54.262a.062.062,0,0,1,.062-.062H16.8a.062.062,0,0,1,.062.062v1.749H7.507Zm52.111,3.595a1.54,1.54,0,0,1,1.538,1.538V61.5H1.847V59.394a1.54,1.54,0,0,1,1.538-1.538ZM55.435,54.2a.062.062,0,0,1,.062.062v1.749H46.144V54.262a.062.062,0,0,1,.062-.062ZM55.8,24.294a1.661,1.661,0,0,1-1.628-1.334.923.923,0,0,0-1.811.357,3.48,3.48,0,0,0,.793,1.616V52.354H48.482V24.933a3.479,3.479,0,0,0,.793-1.616.923.923,0,0,0-1.811-.357,1.661,1.661,0,1,1-1.632-1.988h9.974a1.661,1.661,0,0,1,0,3.322Zm5.353-6.706a1.54,1.54,0,0,1-1.538,1.538H3.385a1.54,1.54,0,0,1-1.538-1.538V15.481h43.09a.923.923,0,1,0,0-1.846H5.363L31.379,2.329a.309.309,0,0,1,.247,0L57.64,13.635h-8.4a.923.923,0,1,0,0,1.846H61.156v2.107Z" transform="translate(-0.001 -0.458)" fill="#02ab29"/>
  </g>
</svg>
