<svg id="hotel" xmlns="http://www.w3.org/2000/svg" width="20.446" height="20.105" viewBox="0 0 20.446 20.105">
  <g id="Group_7" data-name="Group 7" transform="translate(0 0)">
    <g id="Group_6" data-name="Group 6">
      <path id="Path_10" data-name="Path 10" d="M20.105,7.067H16.357V4.341A.341.341,0,0,0,16.016,4H4.43a.341.341,0,0,0-.341.341V9.111H.341A.341.341,0,0,0,0,9.452V23.424a.341.341,0,1,0,.682,0V9.793H4.089V23.764a.341.341,0,0,0,.341.341H16.016a.341.341,0,0,0,.341-.341V7.748h3.408V23.424a.341.341,0,1,0,.682,0V7.408A.341.341,0,0,0,20.105,7.067ZM9.882,23.424H8.519V20.357H9.882Zm2.045,0H10.564V20.357h1.363Zm3.748,0H12.608V20.016a.341.341,0,0,0-.341-.341H8.178a.341.341,0,0,0-.341.341v3.408H4.771V4.682h10.9Z" transform="translate(0 -4)" fill="#039"/>
    </g>
  </g>
  <g id="Group_9" data-name="Group 9" transform="translate(5.452 1.363)">
    <g id="Group_8" data-name="Group 8">
      <path id="Path_11" data-name="Path 11" d="M130.385,36h-2.045a.341.341,0,0,0-.341.341v2.045a.341.341,0,0,0,.341.341h2.045a.341.341,0,0,0,.341-.341V36.341A.341.341,0,0,0,130.385,36Zm-.341,2.045h-1.363V36.682h1.363Z" transform="translate(-128 -36)" fill="#039"/>
    </g>
  </g>
  <g id="Group_11" data-name="Group 11" transform="translate(8.86 1.363)">
    <g id="Group_10" data-name="Group 10">
      <path id="Path_12" data-name="Path 12" d="M210.385,36h-2.045a.341.341,0,0,0-.341.341v2.045a.341.341,0,0,0,.341.341h2.045a.341.341,0,0,0,.341-.341V36.341A.341.341,0,0,0,210.385,36Zm-.341,2.045h-1.363V36.682h1.363Z" transform="translate(-208 -36)" fill="#039"/>
    </g>
  </g>
  <g id="Group_13" data-name="Group 13" transform="translate(12.267 1.363)">
    <g id="Group_12" data-name="Group 12">
      <path id="Path_13" data-name="Path 13" d="M290.385,36h-2.045a.341.341,0,0,0-.341.341v2.045a.341.341,0,0,0,.341.341h2.045a.341.341,0,0,0,.341-.341V36.341A.341.341,0,0,0,290.385,36Zm-.341,2.045h-1.363V36.682h1.363Z" transform="translate(-288 -36)" fill="#039"/>
    </g>
  </g>
  <g id="Group_15" data-name="Group 15" transform="translate(5.452 4.771)">
    <g id="Group_14" data-name="Group 14" transform="translate(0 0)">
      <path id="Path_14" data-name="Path 14" d="M130.385,116h-2.045a.341.341,0,0,0-.341.341v2.045a.341.341,0,0,0,.341.341h2.045a.341.341,0,0,0,.341-.341v-2.045A.341.341,0,0,0,130.385,116Zm-.341,2.045h-1.363v-1.363h1.363Z" transform="translate(-128 -116)" fill="#039"/>
    </g>
  </g>
  <g id="Group_17" data-name="Group 17" transform="translate(8.86 4.771)">
    <g id="Group_16" data-name="Group 16" transform="translate(0 0)">
      <path id="Path_15" data-name="Path 15" d="M210.385,116h-2.045a.341.341,0,0,0-.341.341v2.045a.341.341,0,0,0,.341.341h2.045a.341.341,0,0,0,.341-.341v-2.045A.341.341,0,0,0,210.385,116Zm-.341,2.045h-1.363v-1.363h1.363Z" transform="translate(-208 -116)" fill="#039"/>
    </g>
  </g>
  <g id="Group_19" data-name="Group 19" transform="translate(12.267 4.771)">
    <g id="Group_18" data-name="Group 18" transform="translate(0 0)">
      <path id="Path_16" data-name="Path 16" d="M290.385,116h-2.045a.341.341,0,0,0-.341.341v2.045a.341.341,0,0,0,.341.341h2.045a.341.341,0,0,0,.341-.341v-2.045A.341.341,0,0,0,290.385,116Zm-.341,2.045h-1.363v-1.363h1.363Z" transform="translate(-288 -116)" fill="#039"/>
    </g>
  </g>
  <g id="Group_21" data-name="Group 21" transform="translate(5.452 8.178)">
    <g id="Group_20" data-name="Group 20">
      <path id="Path_17" data-name="Path 17" d="M130.385,196h-2.045a.341.341,0,0,0-.341.341v2.045a.341.341,0,0,0,.341.341h2.045a.341.341,0,0,0,.341-.341v-2.045A.341.341,0,0,0,130.385,196Zm-.341,2.045h-1.363v-1.363h1.363Z" transform="translate(-128 -196)" fill="#039"/>
    </g>
  </g>
  <g id="Group_23" data-name="Group 23" transform="translate(8.86 8.178)">
    <g id="Group_22" data-name="Group 22">
      <path id="Path_18" data-name="Path 18" d="M210.385,196h-2.045a.341.341,0,0,0-.341.341v2.045a.341.341,0,0,0,.341.341h2.045a.341.341,0,0,0,.341-.341v-2.045A.341.341,0,0,0,210.385,196Zm-.341,2.045h-1.363v-1.363h1.363Z" transform="translate(-208 -196)" fill="#039"/>
    </g>
  </g>
  <g id="Group_25" data-name="Group 25" transform="translate(12.267 8.178)">
    <g id="Group_24" data-name="Group 24">
      <path id="Path_19" data-name="Path 19" d="M290.385,196h-2.045a.341.341,0,0,0-.341.341v2.045a.341.341,0,0,0,.341.341h2.045a.341.341,0,0,0,.341-.341v-2.045A.341.341,0,0,0,290.385,196Zm-.341,2.045h-1.363v-1.363h1.363Z" transform="translate(-288 -196)" fill="#039"/>
    </g>
  </g>
  <g id="Group_27" data-name="Group 27" transform="translate(5.452 11.586)">
    <g id="Group_26" data-name="Group 26">
      <path id="Path_20" data-name="Path 20" d="M130.385,276h-2.045a.341.341,0,0,0-.341.341v2.045a.341.341,0,0,0,.341.341h2.045a.341.341,0,0,0,.341-.341v-2.045A.341.341,0,0,0,130.385,276Zm-.341,2.045h-1.363v-1.363h1.363Z" transform="translate(-128 -276)" fill="#039"/>
    </g>
  </g>
  <g id="Group_29" data-name="Group 29" transform="translate(8.86 11.586)">
    <g id="Group_28" data-name="Group 28">
      <path id="Path_21" data-name="Path 21" d="M210.385,276h-2.045a.341.341,0,0,0-.341.341v2.045a.341.341,0,0,0,.341.341h2.045a.341.341,0,0,0,.341-.341v-2.045A.341.341,0,0,0,210.385,276Zm-.341,2.045h-1.363v-1.363h1.363Z" transform="translate(-208 -276)" fill="#039"/>
    </g>
  </g>
  <g id="Group_31" data-name="Group 31" transform="translate(12.267 11.586)">
    <g id="Group_30" data-name="Group 30">
      <path id="Path_22" data-name="Path 22" d="M290.385,276h-2.045a.341.341,0,0,0-.341.341v2.045a.341.341,0,0,0,.341.341h2.045a.341.341,0,0,0,.341-.341v-2.045A.341.341,0,0,0,290.385,276Zm-.341,2.045h-1.363v-1.363h1.363Z" transform="translate(-288 -276)" fill="#039"/>
    </g>
  </g>
  <g id="Group_33" data-name="Group 33" transform="translate(1.363 6.475)">
    <g id="Group_32" data-name="Group 32">
      <path id="Path_23" data-name="Path 23" d="M32.682,156h-.341a.341.341,0,0,0-.341.341v.341a.341.341,0,0,0,.341.341h.341a.341.341,0,0,0,.341-.341v-.341A.341.341,0,0,0,32.682,156Z" transform="translate(-32 -156)" fill="#039"/>
    </g>
  </g>
  <g id="Group_35" data-name="Group 35" transform="translate(2.726 6.475)">
    <g id="Group_34" data-name="Group 34">
      <path id="Path_24" data-name="Path 24" d="M64.682,156h-.341a.341.341,0,0,0-.341.341v.341a.341.341,0,0,0,.341.341h.341a.341.341,0,0,0,.341-.341v-.341A.341.341,0,0,0,64.682,156Z" transform="translate(-64 -156)" fill="#039"/>
    </g>
  </g>
  <g id="Group_37" data-name="Group 37" transform="translate(1.363 7.838)">
    <g id="Group_36" data-name="Group 36">
      <path id="Path_25" data-name="Path 25" d="M32.682,188h-.341a.341.341,0,0,0-.341.341v.341a.341.341,0,0,0,.341.341h.341a.341.341,0,0,0,.341-.341v-.341A.341.341,0,0,0,32.682,188Z" transform="translate(-32 -188)" fill="#039"/>
    </g>
  </g>
  <g id="Group_39" data-name="Group 39" transform="translate(2.726 7.838)">
    <g id="Group_38" data-name="Group 38">
      <path id="Path_26" data-name="Path 26" d="M64.682,188h-.341a.341.341,0,0,0-.341.341v.341a.341.341,0,0,0,.341.341h.341a.341.341,0,0,0,.341-.341v-.341A.341.341,0,0,0,64.682,188Z" transform="translate(-64 -188)" fill="#039"/>
    </g>
  </g>
  <g id="Group_41" data-name="Group 41" transform="translate(1.363 9.201)">
    <g id="Group_40" data-name="Group 40">
      <path id="Path_27" data-name="Path 27" d="M32.682,220h-.341a.341.341,0,0,0-.341.341v.341a.341.341,0,0,0,.341.341h.341a.341.341,0,0,0,.341-.341v-.341A.341.341,0,0,0,32.682,220Z" transform="translate(-32 -220)" fill="#039"/>
    </g>
  </g>
  <g id="Group_43" data-name="Group 43" transform="translate(2.726 9.201)">
    <g id="Group_42" data-name="Group 42">
      <path id="Path_28" data-name="Path 28" d="M64.682,220h-.341a.341.341,0,0,0-.341.341v.341a.341.341,0,0,0,.341.341h.341a.341.341,0,0,0,.341-.341v-.341A.341.341,0,0,0,64.682,220Z" transform="translate(-64 -220)" fill="#039"/>
    </g>
  </g>
  <g id="Group_45" data-name="Group 45" transform="translate(1.363 10.564)">
    <g id="Group_44" data-name="Group 44">
      <path id="Path_29" data-name="Path 29" d="M32.682,252h-.341a.341.341,0,0,0-.341.341v.341a.341.341,0,0,0,.341.341h.341a.341.341,0,0,0,.341-.341v-.341A.341.341,0,0,0,32.682,252Z" transform="translate(-32 -252)" fill="#039"/>
    </g>
  </g>
  <g id="Group_47" data-name="Group 47" transform="translate(2.726 10.564)">
    <g id="Group_46" data-name="Group 46">
      <path id="Path_30" data-name="Path 30" d="M64.682,252h-.341a.341.341,0,0,0-.341.341v.341a.341.341,0,0,0,.341.341h.341a.341.341,0,0,0,.341-.341v-.341A.341.341,0,0,0,64.682,252Z" transform="translate(-64 -252)" fill="#039"/>
    </g>
  </g>
  <g id="Group_49" data-name="Group 49" transform="translate(1.363 11.927)">
    <g id="Group_48" data-name="Group 48">
      <path id="Path_31" data-name="Path 31" d="M32.682,284h-.341a.341.341,0,0,0-.341.341v.341a.341.341,0,0,0,.341.341h.341a.341.341,0,0,0,.341-.341v-.341A.341.341,0,0,0,32.682,284Z" transform="translate(-32 -284)" fill="#039"/>
    </g>
  </g>
  <g id="Group_51" data-name="Group 51" transform="translate(2.726 11.927)">
    <g id="Group_50" data-name="Group 50">
      <path id="Path_32" data-name="Path 32" d="M64.682,284h-.341a.341.341,0,0,0-.341.341v.341a.341.341,0,0,0,.341.341h.341a.341.341,0,0,0,.341-.341v-.341A.341.341,0,0,0,64.682,284Z" transform="translate(-64 -284)" fill="#039"/>
    </g>
  </g>
  <g id="Group_53" data-name="Group 53" transform="translate(1.363 13.29)">
    <g id="Group_52" data-name="Group 52">
      <path id="Path_33" data-name="Path 33" d="M32.682,316h-.341a.341.341,0,0,0-.341.341v.341a.341.341,0,0,0,.341.341h.341a.341.341,0,0,0,.341-.341v-.341A.341.341,0,0,0,32.682,316Z" transform="translate(-32 -316)" fill="#039"/>
    </g>
  </g>
  <g id="Group_55" data-name="Group 55" transform="translate(2.726 13.29)">
    <g id="Group_54" data-name="Group 54">
      <path id="Path_34" data-name="Path 34" d="M64.682,316h-.341a.341.341,0,0,0-.341.341v.341a.341.341,0,0,0,.341.341h.341a.341.341,0,0,0,.341-.341v-.341A.341.341,0,0,0,64.682,316Z" transform="translate(-64 -316)" fill="#039"/>
    </g>
  </g>
  <g id="Group_57" data-name="Group 57" transform="translate(1.363 14.653)">
    <g id="Group_56" data-name="Group 56">
      <path id="Path_35" data-name="Path 35" d="M32.682,348h-.341a.341.341,0,0,0-.341.341v.341a.341.341,0,0,0,.341.341h.341a.341.341,0,0,0,.341-.341v-.341A.341.341,0,0,0,32.682,348Z" transform="translate(-32 -348)" fill="#039"/>
    </g>
  </g>
  <g id="Group_59" data-name="Group 59" transform="translate(2.726 14.653)">
    <g id="Group_58" data-name="Group 58">
      <path id="Path_36" data-name="Path 36" d="M64.682,348h-.341a.341.341,0,0,0-.341.341v.341a.341.341,0,0,0,.341.341h.341a.341.341,0,0,0,.341-.341v-.341A.341.341,0,0,0,64.682,348Z" transform="translate(-64 -348)" fill="#039"/>
    </g>
  </g>
  <g id="Group_61" data-name="Group 61" transform="translate(1.363 16.016)">
    <g id="Group_60" data-name="Group 60">
      <path id="Path_37" data-name="Path 37" d="M32.682,380h-.341a.341.341,0,0,0-.341.341v.341a.341.341,0,0,0,.341.341h.341a.341.341,0,0,0,.341-.341v-.341A.341.341,0,0,0,32.682,380Z" transform="translate(-32 -380)" fill="#039"/>
    </g>
  </g>
  <g id="Group_63" data-name="Group 63" transform="translate(2.726 16.016)">
    <g id="Group_62" data-name="Group 62">
      <path id="Path_38" data-name="Path 38" d="M64.682,380h-.341a.341.341,0,0,0-.341.341v.341a.341.341,0,0,0,.341.341h.341a.341.341,0,0,0,.341-.341v-.341A.341.341,0,0,0,64.682,380Z" transform="translate(-64 -380)" fill="#039"/>
    </g>
  </g>
  <g id="Group_65" data-name="Group 65" transform="translate(1.363 17.379)">
    <g id="Group_64" data-name="Group 64">
      <path id="Path_39" data-name="Path 39" d="M32.682,412h-.341a.341.341,0,0,0-.341.341v.341a.341.341,0,0,0,.341.341h.341a.341.341,0,0,0,.341-.341v-.341A.341.341,0,0,0,32.682,412Z" transform="translate(-32 -412)" fill="#039"/>
    </g>
  </g>
  <g id="Group_67" data-name="Group 67" transform="translate(2.726 17.379)">
    <g id="Group_66" data-name="Group 66">
      <path id="Path_40" data-name="Path 40" d="M64.682,412h-.341a.341.341,0,0,0-.341.341v.341a.341.341,0,0,0,.341.341h.341a.341.341,0,0,0,.341-.341v-.341A.341.341,0,0,0,64.682,412Z" transform="translate(-64 -412)" fill="#039"/>
    </g>
  </g>
  <g id="Group_69" data-name="Group 69" transform="translate(17.038 4.43)">
    <g id="Group_68" data-name="Group 68" transform="translate(0 0)">
      <path id="Path_41" data-name="Path 41" d="M401.7,108h-1.363a.341.341,0,0,0-.341.341V109.7a.341.341,0,0,0,.341.341H401.7a.341.341,0,0,0,.341-.341v-1.363A.341.341,0,0,0,401.7,108Zm-.341,1.363h-.682v-.682h.682Z" transform="translate(-400 -108)" fill="#039"/>
    </g>
  </g>
  <g id="Group_71" data-name="Group 71" transform="translate(17.038 7.156)">
    <g id="Group_70" data-name="Group 70">
      <path id="Path_42" data-name="Path 42" d="M401.7,172h-1.363a.341.341,0,0,0-.341.341V173.7a.341.341,0,0,0,.341.341H401.7a.341.341,0,0,0,.341-.341v-1.363A.341.341,0,0,0,401.7,172Zm-.341,1.363h-.682v-.682h.682Z" transform="translate(-400 -172)" fill="#039"/>
    </g>
  </g>
  <g id="Group_73" data-name="Group 73" transform="translate(17.038 9.882)">
    <g id="Group_72" data-name="Group 72" transform="translate(0 0)">
      <path id="Path_43" data-name="Path 43" d="M401.7,236h-1.363a.341.341,0,0,0-.341.341V237.7a.341.341,0,0,0,.341.341H401.7a.341.341,0,0,0,.341-.341v-1.363A.341.341,0,0,0,401.7,236Zm-.341,1.363h-.682v-.682h.682Z" transform="translate(-400 -236)" fill="#039"/>
    </g>
  </g>
  <g id="Group_75" data-name="Group 75" transform="translate(17.038 12.608)">
    <g id="Group_74" data-name="Group 74">
      <path id="Path_44" data-name="Path 44" d="M401.7,300h-1.363a.341.341,0,0,0-.341.341V301.7a.341.341,0,0,0,.341.341H401.7a.341.341,0,0,0,.341-.341v-1.363A.341.341,0,0,0,401.7,300Zm-.341,1.363h-.682v-.682h.682Z" transform="translate(-400 -300)" fill="#039"/>
    </g>
  </g>
  <g id="Group_77" data-name="Group 77" transform="translate(17.038 15.334)">
    <g id="Group_76" data-name="Group 76">
      <path id="Path_45" data-name="Path 45" d="M401.7,364h-1.363a.341.341,0,0,0-.341.341V365.7a.341.341,0,0,0,.341.341H401.7a.341.341,0,0,0,.341-.341v-1.363A.341.341,0,0,0,401.7,364Zm-.341,1.363h-.682v-.682h.682Z" transform="translate(-400 -364)" fill="#039"/>
    </g>
  </g>
</svg>
