<svg xmlns="http://www.w3.org/2000/svg" width="63.001" height="63.001" viewBox="0 0 63.001 63.001">
  <g id="invatamant" transform="translate(0)">
    <path id="Path_1829" data-name="Path 1829" d="M3.7,50.842a1.231,1.231,0,0,0,1.412,1.07c.074-.012,7.432-1.145,11.281-.033A22.594,22.594,0,0,1,26.6,58.551a4.921,4.921,0,0,0,9.8,0,22.471,22.471,0,0,1,10.208-6.671c3.842-1.109,11.207.022,11.281.033a1.231,1.231,0,0,0,1.412-1.07l1.191-10.005a1.231,1.231,0,0,0-2.444-.291l-1.043,8.764c-2.416-.293-7.721-.765-11.08.2A24.216,24.216,0,0,0,36.423,55v-31.3c.67-1.175,4.015-6.466,9.844-6.466,4.533,0,9.977,1.516,14.173,3.232l-1.082,9.089a1.23,1.23,0,1,0,2.444.291l1.191-10.006a1.23,1.23,0,0,0-.713-1.266,47.468,47.468,0,0,0-4.614-1.737l.9-8.081a1.231,1.231,0,0,0-1.223-1.367,25.157,25.157,0,0,0-2.919.17l.454-6.233A1.231,1.231,0,0,0,53.65,0,18.667,18.667,0,0,0,35.242,15.592c-1.293,7.823-1.28,7.578-1.28,7.787a2.461,2.461,0,0,1-4.922,0c0-.259-.084-.522-1.28-7.787A18.667,18.667,0,0,0,9.352,0,1.23,1.23,0,0,0,8.125,1.32l.454,6.233a25.16,25.16,0,0,0-2.919-.17A1.23,1.23,0,0,0,4.437,8.749l.9,8.081A47.509,47.509,0,0,0,.722,18.568a1.23,1.23,0,0,0-.713,1.266ZM55.962,9.886l-.693,6.231a34.8,34.8,0,0,0-9-1.351,11.937,11.937,0,0,0-3.712.584A22.636,22.636,0,0,1,55.962,9.886ZM37.67,16A16.145,16.145,0,0,1,52.322,2.514l-.4,5.46a25.1,25.1,0,0,0-14.442,9.148ZM31.5,28.3a4.89,4.89,0,0,0,2.461-.662v30.44a2.461,2.461,0,1,1-4.922,0V27.639A4.89,4.89,0,0,0,31.5,28.3ZM25.332,16l.188,1.125A25.107,25.107,0,0,0,11.077,7.974l-.4-5.46A16.145,16.145,0,0,1,25.332,16Zm-4.885-.647a11.939,11.939,0,0,0-3.712-.584,34.8,34.8,0,0,0-9,1.351L7.04,9.886A22.636,22.636,0,0,1,20.447,15.35Zm-3.712,1.877c5.828,0,9.173,5.29,9.844,6.466V55a24.218,24.218,0,0,0-9.5-5.483c-3.082-.89-7.9-.59-11.08-.2L2.562,20.459C6.762,18.741,12.206,17.227,16.735,17.227Z" transform="translate(0 0)"/>
    <ellipse id="Ellipse_13" data-name="Ellipse 13" cx="0.888" cy="1.184" rx="0.888" ry="1.184" transform="translate(58.997 34.233)"/>
  </g>
</svg>
