<svg xmlns="http://www.w3.org/2000/svg" width="62.889" height="62.889" viewBox="0 0 62.889 62.889">
  <g id="mobilitate_urbana" data-name="mobilitate urbana" transform="translate(0)">
    <path id="Path_1830" data-name="Path 1830" d="M21,37h2.029v2.029H21Z" transform="translate(-0.714 -0.484)" fill="#02ab29"/>
    <path id="Path_1831" data-name="Path 1831" d="M17,37h2.029v2.029H17Z" transform="translate(-0.771 -0.484)" fill="#02ab29"/>
    <path id="Path_1832" data-name="Path 1832" d="M25,37h2.029v2.029H25Z" transform="translate(-0.656 -0.484)" fill="#02ab29"/>
    <path id="Path_1833" data-name="Path 1833" d="M25,41h2.029v2.029H25Z" transform="translate(-0.656 -0.427)" fill="#02ab29"/>
    <path id="Path_1834" data-name="Path 1834" d="M21,41h2.029v2.029H21Z" transform="translate(-0.714 -0.427)" fill="#02ab29"/>
    <path id="Path_1835" data-name="Path 1835" d="M17,41h2.029v2.029H17Z" transform="translate(-0.771 -0.427)" fill="#02ab29"/>
    <path id="Path_1836" data-name="Path 1836" d="M25,45h2.029v2.029H25Z" transform="translate(-0.656 -0.369)" fill="#02ab29"/>
    <path id="Path_1837" data-name="Path 1837" d="M21,45h2.029v2.029H21Z" transform="translate(-0.714 -0.369)" fill="#02ab29"/>
    <path id="Path_1838" data-name="Path 1838" d="M17,45h2.029v2.029H17Z" transform="translate(-0.771 -0.369)" fill="#02ab29"/>
    <path id="Path_1839" data-name="Path 1839" d="M9,41h2.029v2.029H9Z" transform="translate(-0.886 -0.427)" fill="#02ab29"/>
    <path id="Path_1840" data-name="Path 1840" d="M9,45h2.029v2.029H9Z" transform="translate(-0.886 -0.369)" fill="#02ab29"/>
    <path id="Path_1841" data-name="Path 1841" d="M43.258,17H25v6.086H43.258Zm-2.029,4.057h-14.2V19.029h14.2Z" transform="translate(-0.656 -0.771)" fill="#02ab29"/>
    <path id="Path_1842" data-name="Path 1842" d="M53,21h2.029v2.029H53Z" transform="translate(-0.255 -0.713)" fill="#02ab29"/>
    <path id="Path_1843" data-name="Path 1843" d="M57,21h2.029v2.029H57Z" transform="translate(-0.197 -0.713)" fill="#02ab29"/>
    <path id="Path_1844" data-name="Path 1844" d="M57,25h2.029v2.029H57Z" transform="translate(-0.197 -0.656)" fill="#02ab29"/>
    <path id="Path_1845" data-name="Path 1845" d="M53,25h2.029v2.029H53Z" transform="translate(-0.255 -0.656)" fill="#02ab29"/>
    <path id="Path_1846" data-name="Path 1846" d="M53,29h2.029v2.029H53Z" transform="translate(-0.255 -0.599)" fill="#02ab29"/>
    <path id="Path_1847" data-name="Path 1847" d="M57,29h2.029v2.029H57Z" transform="translate(-0.197 -0.599)" fill="#02ab29"/>
    <path id="Path_1848" data-name="Path 1848" d="M57,33h2.029v2.029H57Z" transform="translate(-0.197 -0.541)" fill="#02ab29"/>
    <path id="Path_1849" data-name="Path 1849" d="M53,33h2.029v2.029H53Z" transform="translate(-0.255 -0.541)" fill="#02ab29"/>
    <path id="Path_1850" data-name="Path 1850" d="M63.889,13.172V10.129a7.1,7.1,0,0,0-14.2,0v3.043h2.029v4.057H49.688v21.06c-.723-1.494-1.394-3.012-2.029-4.544V13.172H45.631V5.057H42.588V1H26.358V5.057H23.315v8.115H21.287V33.459H13.172v4.057H5.057V56.469A7.1,7.1,0,0,0,1,62.874v1.014H63.889V61.86H57.8V55.67c3.435-.636,6.086-4.435,6.086-9.025V17.229H61.86V13.172ZM51.717,10.129a5.072,5.072,0,0,1,10.143,0v1.014H51.717Zm2.029,3.043h2.029v4.057H53.746ZM45.631,46.645V43.13L48.222,41.4,47.1,39.715l-1.467.978V38.53H43.6v4.652l-1.312-1.312L40.856,43.3,43.6,46.051v.594h-6.29a87.844,87.844,0,0,0,6.991-14.2h.628a87.759,87.759,0,0,0,6.991,14.2ZM28.387,3.029H40.559V5.057H28.387ZM25.344,7.086H43.6v6.086H41.573V9.115H39.545v4.057H37.516V9.115H35.487v4.057H33.459V9.115H31.43v4.057H29.4V9.115H27.373v4.057H25.344ZM23.315,15.2H45.631V30.416H43.6V25.344H25.344V31.43H42.509a85.686,85.686,0,0,1-7.4,14.926l-1.449,2.318H43.6v7.2a6.94,6.94,0,0,0-5.373-2.123,7.147,7.147,0,0,0-6.8-5.079V33.459H23.315ZM41.573,27.373V29.4h-14.2V27.373ZM15.2,35.487H29.4v13.5a7.06,7.06,0,0,0-4.811,4.878,7.058,7.058,0,0,0-2.894.07,7.114,7.114,0,0,0-6.5-4.245ZM7.086,39.545h6.086V49.987a7.057,7.057,0,0,0-2.029.983V49.688H9.115v2.029h1.13a7.079,7.079,0,0,0-2.072,4.057H8.1a7.127,7.127,0,0,0-1.014.081ZM8.1,57.8a5.092,5.092,0,0,1,.849.077l1.18.111v-1.2a5.069,5.069,0,0,1,9.961-1.33l.3,1.1,1.056-.422a5.031,5.031,0,0,1,3.592-.056l1.216.439.136-1.286a5.068,5.068,0,0,1,10.05-.219l.156,1.036,1.029-.189a5.05,5.05,0,0,1,5.98,4.985V61.86H3.131A5.08,5.08,0,0,1,8.1,57.8Zm37.53,4.057V48.674h4.235c.646,3.683,3.013,6.462,5.909,7V61.86Zm11.158-8.115c-2.263,0-4.224-2.116-4.856-5.072h3.641l-1.448-2.318c-.624-1-1.214-2.018-1.8-3.042.885-2.3,2.593-3.769,4.459-3.769,2.8,0,5.072,3.186,5.072,7.1S59.585,53.745,56.789,53.745Zm0-16.229a6.431,6.431,0,0,0-5.072,2.757V19.258H61.86V40.269A6.429,6.429,0,0,0,56.789,37.516Zm3.043-20.287H57.8V13.172h2.029Z" transform="translate(-1 -1)" fill="#02ab29"/>
  </g>
</svg>
