<svg xmlns="http://www.w3.org/2000/svg" width="63.001" height="55.207" viewBox="0 0 63.001 55.207">
  <g id="politia_locala" data-name="politia locala" transform="translate(0)">
    <path id="Path_1856" data-name="Path 1856" d="M182.673,286.2h12.38a3.23,3.23,0,0,0,0-6.461h-12.38a3.23,3.23,0,0,0,0,6.461Zm0-4.615h12.38a1.385,1.385,0,0,1,0,2.769h-12.38a1.385,1.385,0,0,1,0-2.769Z" transform="translate(-157.362 -249.219)"/>
    <path id="Path_1857" data-name="Path 1857" d="M58.524,70.879h-.239V63.485a6.73,6.73,0,0,0-.309-2.02c-.006-.021-.013-.041-.021-.062a6.766,6.766,0,0,0-5.927-4.651l-2.274-5.325a.923.923,0,1,0-1.7.725l1.956,4.58H12.989l4.911-11.5a1.626,1.626,0,0,1,1.5-.989H43.6a1.626,1.626,0,0,1,1.5.989l1.376,3.221a.923.923,0,1,0,1.7-.725L46.8,44.507A3.469,3.469,0,0,0,43.6,42.4H40.193V39.965H43.91a4.148,4.148,0,1,0,0-8.3h-10.4a.923.923,0,1,0,0,1.846h3.267v4.6H26.223v-4.6H29.49a.923.923,0,1,0,0-1.846h-10.4a4.148,4.148,0,1,0,0,8.3h3.718V42.4H19.4A3.469,3.469,0,0,0,16.2,44.507l-5.23,12.245A6.766,6.766,0,0,0,5.046,61.4c-.008.02-.015.041-.021.062a6.729,6.729,0,0,0-.309,2.02v7.394H4.477a4.477,4.477,0,1,0,0,8.954H7.44v3.05a4,4,0,0,0,3.994,3.994h2.192a4,4,0,0,0,3.994-3.994v-3.05H45.382v3.05a4,4,0,0,0,3.994,3.994h2.192a4,4,0,0,0,3.994-3.994v-3.05h2.963a4.477,4.477,0,1,0,0-8.954Zm-19.9-37.363H43.91a2.3,2.3,0,0,1,0,4.6H38.624Zm-21.835,2.3a2.3,2.3,0,0,1,2.3-2.3h5.286v4.6H19.091A2.3,2.3,0,0,1,16.789,35.818Zm7.865,4.148H38.347V42.4H24.654Zm31.785,23.52v3.326H46.8l1.625-3.974a.3.3,0,0,1,.283-.19h7.661A4.924,4.924,0,0,1,56.439,63.485Zm-49.8-.838H14.3a.3.3,0,0,1,.283.19L16.2,66.811H6.562V63.485A4.911,4.911,0,0,1,6.635,62.647ZM1.846,75.356a2.634,2.634,0,0,1,2.631-2.631h9.378a.923.923,0,0,0,0-1.846H6.562V68.656h10.1a1.537,1.537,0,0,0,1.423-2.119l-1.8-4.4A2.143,2.143,0,0,0,14.3,60.8H7.364a4.906,4.906,0,0,1,4.1-2.223H51.532a4.906,4.906,0,0,1,4.1,2.223H48.705a2.144,2.144,0,0,0-1.991,1.337l-1.8,4.4a1.537,1.537,0,0,0,1.423,2.119h10.1v2.223H17.877a.923.923,0,0,0,0,1.846h4.48v5.262H4.477a2.634,2.634,0,0,1-2.631-2.631ZM38.8,72.725v5.262H24.2V72.725ZM15.774,82.883a2.151,2.151,0,0,1-2.148,2.148H11.434a2.151,2.151,0,0,1-2.148-2.148v-3.05h6.488Zm37.942,0a2.151,2.151,0,0,1-2.148,2.148H49.376a2.151,2.151,0,0,1-2.148-2.148v-3.05h6.488Zm4.808-4.9H40.643V72.725H58.524a2.631,2.631,0,1,1,0,5.262Z" transform="translate(0 -31.67)"/>
  </g>
</svg>
