<svg xmlns="http://www.w3.org/2000/svg" width="63.001" height="63.001" viewBox="0 0 63.001 63.001">
  <g id="Layer_7" data-name="Layer 7" transform="translate(0)">
    <path id="Path_1858" data-name="Path 1858" d="M11,11.032h3.048V23.226h2.032V11.032h3.048V9H11Z" transform="translate(-0.838 -0.871)" fill="#02ab29"/>
    <path id="Path_1859" data-name="Path 1859" d="M25.065,9A4.065,4.065,0,0,0,21,13.065V23.226h2.032V19.161H27.1v4.065h2.032V13.065A4.065,4.065,0,0,0,25.065,9Zm-2.032,8.129V13.065a2.032,2.032,0,0,1,4.065,0v4.065Z" transform="translate(-0.677 -0.871)" fill="#02ab29"/>
    <path id="Path_1860" data-name="Path 1860" d="M37.1,9a8.709,8.709,0,0,1-2.032,5.629,7.977,7.977,0,0,1-2.032-5.314V9H31v.315a9.979,9.979,0,0,0,2.673,6.8A10.71,10.71,0,0,0,31,23.226h2.032A8.709,8.709,0,0,1,35.065,17.6,7.977,7.977,0,0,1,37.1,22.911v.315h2.032v-.315a9.979,9.979,0,0,0-2.674-6.8A10.71,10.71,0,0,0,39.129,9Z" transform="translate(-0.515 -0.871)" fill="#02ab29"/>
    <path id="Path_1861" data-name="Path 1861" d="M8.016,27.355H42.565a1.016,1.016,0,0,0,1.016-1.016V6.016A1.016,1.016,0,0,0,42.565,5H8.016A1.016,1.016,0,0,0,7,6.016V26.339A1.016,1.016,0,0,0,8.016,27.355ZM9.032,7.032H41.549V25.323H9.032Z" transform="translate(-0.903 -0.935)" fill="#02ab29"/>
    <path id="Path_1862" data-name="Path 1862" d="M8.016,37.129h6.1a1.016,1.016,0,0,0,1.016-1.016v-6.1A1.016,1.016,0,0,0,14.113,29h-6.1A1.016,1.016,0,0,0,7,30.016v6.1A1.016,1.016,0,0,0,8.016,37.129Zm1.016-6.1H13.1V35.1H9.032Z" transform="translate(-0.903 -0.548)" fill="#02ab29"/>
    <path id="Path_1863" data-name="Path 1863" d="M14.113,49h-6.1A1.016,1.016,0,0,0,7,50.016v6.1a1.016,1.016,0,0,0,1.016,1.016h6.1a1.016,1.016,0,0,0,1.016-1.016v-6.1A1.016,1.016,0,0,0,14.113,49ZM13.1,55.1H9.032V51.032H13.1Z" transform="translate(-0.903 -0.225)" fill="#02ab29"/>
    <path id="Path_1864" data-name="Path 1864" d="M15.424,37.29,13.7,39.028H8.016A1.016,1.016,0,0,0,7,40.044v6.1a1.016,1.016,0,0,0,1.016,1.016h6.1a1.016,1.016,0,0,0,1.016-1.016V40.46l1.738-1.727Zm-3.76,3.77L9.032,43.692V41.06ZM13.1,45.124H10.465L13.1,42.493Z" transform="translate(-0.903 -0.414)" fill="#02ab29"/>
    <path id="Path_1865" data-name="Path 1865" d="M17,30H43.42v2.032H17Z" transform="translate(-0.741 -0.532)" fill="#02ab29"/>
    <path id="Path_1866" data-name="Path 1866" d="M17,34H43.42v2.032H17Z" transform="translate(-0.741 -0.467)" fill="#02ab29"/>
    <path id="Path_1867" data-name="Path 1867" d="M49.775,35.549V2.016A1.016,1.016,0,0,0,48.759,1H2.016A1.016,1.016,0,0,0,1,2.016V62.985A1.016,1.016,0,0,0,2.016,64H46.727a1.016,1.016,0,0,0,.61-.224A14.806,14.806,0,0,0,49.775,64a14.226,14.226,0,1,0,0-28.452ZM3.032,61.969V3.032H47.743V35.712a14.226,14.226,0,0,0-8.851,4.918H17.258v2.032H37.47a14.328,14.328,0,0,0-1.016,2.032h-19.2v2.032H35.884a14.369,14.369,0,0,0-.335,3.048v1.016H17.258v2.032H35.884a13.819,13.819,0,0,0,.62,2.032H17.258v2.032H37.47a14.317,14.317,0,0,0,5.02,5.081Zm46.743,0A12.194,12.194,0,1,1,61.969,49.775,12.194,12.194,0,0,1,49.775,61.969Z" transform="translate(-1 -1)" fill="#02ab29"/>
    <path id="Path_1868" data-name="Path 1868" d="M54.048,49A3.048,3.048,0,1,0,57.1,52.048,3.048,3.048,0,0,0,54.048,49Zm0,4.065a1.016,1.016,0,1,1,1.016-1.016A1.016,1.016,0,0,1,54.048,53.065Z" transform="translate(-0.192 -0.225)" fill="#02ab29"/>
    <path id="Path_1869" data-name="Path 1869" d="M47.1,46.048A3.048,3.048,0,1,0,44.048,49.1,3.048,3.048,0,0,0,47.1,46.048Zm-3.048,1.016a1.016,1.016,0,1,1,1.016-1.016A1.016,1.016,0,0,1,44.048,47.065Z" transform="translate(-0.354 -0.322)" fill="#02ab29"/>
    <path id="Path_1870" data-name="Path 1870" d="M0,0H20.018V2.032H0Z" transform="translate(43.783 57.499) rotate(-66.049)" fill="#02ab29"/>
  </g>
</svg>
