<svg xmlns="http://www.w3.org/2000/svg" width="36.897" height="63.001" viewBox="0 0 36.897 63.001">
  <g id="autorizari_comerciale" data-name="autorizari comerciale" transform="translate(-0.001)">
    <path id="Path_1826" data-name="Path 1826" d="M185.029,332.553a6.562,6.562,0,1,0,5.894,11.084,5.361,5.361,0,0,0,1.653-4.371.917.917,0,1,0-1.827.16,3.53,3.53,0,0,1-1.123,2.914,4.729,4.729,0,1,1-4.248-7.986.917.917,0,0,0-.348-1.8Z" transform="translate(-170.658 -291.618)"/>
    <path id="Path_1827" data-name="Path 1827" d="M139.606,21.126h-6.991v-4.6a12.073,12.073,0,0,1,.449-3.262L134.2,9.2a7.389,7.389,0,0,0,.154-3.3.917.917,0,1,0-1.8.329,5.543,5.543,0,0,1-.116,2.476L131.3,12.764a13.915,13.915,0,0,0-.517,3.758v4.6h-6.15v-4.6a13.911,13.911,0,0,0-.517-3.758l-1.139-4.059a5.507,5.507,0,0,1,.716-4.539l1.277-1.922a.915.915,0,0,1,.764-.41h3.948a.915.915,0,0,1,.764.41l.49.738a.917.917,0,1,0,1.528-1.015l-.49-.738A2.746,2.746,0,0,0,129.68,0h-3.948a2.746,2.746,0,0,0-2.292,1.229l-1.277,1.922a7.34,7.34,0,0,0-.954,6.05l1.139,4.059a12.077,12.077,0,0,1,.449,3.262v4.6h-7.464a3.367,3.367,0,0,0-3.363,3.363V29.7a8.721,8.721,0,0,0,1.555,4.978A15.23,15.23,0,1,0,129.365,60.7a.917.917,0,1,0-.972-1.556,13.4,13.4,0,1,1-13.651-23.047,8.823,8.823,0,0,0,1.643,1.219,11.575,11.575,0,1,0,11.774,1.164h2.775a13.434,13.434,0,0,1,.474,18.088.917.917,0,0,0,1.384,1.2,15.281,15.281,0,0,0,.562-19.292h.842a8.784,8.784,0,0,0,8.774-8.774V24.489a3.367,3.367,0,0,0-3.363-3.363ZM128.174,40.9a9.734,9.734,0,1,1-9.214-2.562.933.933,0,0,0,.09-.027,8.782,8.782,0,0,0,1.693.166h3.389a9.717,9.717,0,0,1,4.042,2.424Zm6.022-4.258H120.743A6.947,6.947,0,0,1,113.8,29.7V28.125h4.145a.917.917,0,0,0,0-1.834H113.8v-1.8a1.53,1.53,0,0,1,1.529-1.529h24.274a1.53,1.53,0,0,1,1.528,1.529v1.8H122.151a.917.917,0,1,0,0,1.834h18.983V29.7A6.947,6.947,0,0,1,134.2,36.641Z" transform="translate(-106.071 0)"/>
  </g>
</svg>
