<svg xmlns="http://www.w3.org/2000/svg" width="32.308" height="25" viewBox="0 0 32.308 25">
  <g id="Component_3_1" data-name="Component 3 – 1" transform="translate(0.366)">
    <path id="Icon_awesome-bell" data-name="Icon awesome-bell" d="M10.937,25a3.124,3.124,0,0,0,3.124-3.125H7.814A3.124,3.124,0,0,0,10.937,25Zm10.517-7.31c-.943-1.014-2.708-2.539-2.708-7.534A7.711,7.711,0,0,0,12.5,2.58V1.563a1.562,1.562,0,1,0-3.123,0V2.58a7.711,7.711,0,0,0-6.247,7.576c0,5-1.765,6.52-2.708,7.534A1.526,1.526,0,0,0,0,18.75a1.564,1.564,0,0,0,1.567,1.563h18.74a1.564,1.564,0,0,0,1.567-1.562,1.525,1.525,0,0,0-.42-1.06Z" transform="translate(5.06)" fill="#fff"/>
    <path id="Path_1818" data-name="Path 1818" d="M719.7,3199.766s.26,4.685,3.644,6.767" transform="translate(-2076.114 2554.013) rotate(-128)" fill="none" stroke="#fff" stroke-width="2"/>
    <path id="Path_1819" data-name="Path 1819" d="M0,6.767S.26,2.082,3.644,0" transform="matrix(0.616, -0.788, 0.788, 0.616, 24, 12.742)" fill="none" stroke="#fff" stroke-width="2"/>
  </g>
</svg>
