<svg xmlns="http://www.w3.org/2000/svg" width="11.261" height="10.951" viewBox="0 0 11.261 10.951">
  <g id="Group_371" data-name="Group 371" transform="translate(-377.621 -482.333)">
    <path id="Icon_ionic-ios-arrow-forward" data-name="Icon ionic-ios-arrow-forward" d="M15.62,11.67,11.476,7.529a.779.779,0,0,1,0-1.105.789.789,0,0,1,1.109,0l4.695,4.692a.781.781,0,0,1,.023,1.079l-4.714,4.724a.783.783,0,1,1-1.109-1.105Z" transform="translate(366.374 476.136)"/>
    <path id="Icon_ionic-ios-arrow-forward-2" data-name="Icon ionic-ios-arrow-forward" d="M15.62,11.67,11.476,7.529a.779.779,0,0,1,0-1.105.789.789,0,0,1,1.109,0l4.695,4.692a.781.781,0,0,1,.023,1.079l-4.714,4.724a.783.783,0,1,1-1.109-1.105Z" transform="translate(371.374 476.136)"/>
  </g>
</svg>
