<svg xmlns="http://www.w3.org/2000/svg" width="17.5" height="17.5" viewBox="0 0 17.5 17.5">
  <path id="Icon_ionic-ios-close-circle" data-name="Icon ionic-ios-close-circle" d="M12.125,3.375a8.75,8.75,0,1,0,8.75,8.75A8.749,8.749,0,0,0,12.125,3.375Zm2.217,11.918-2.217-2.217L9.908,15.293a.672.672,0,1,1-.951-.951l2.217-2.217L8.957,9.908a.672.672,0,1,1,.951-.951l2.217,2.217,2.217-2.217a.672.672,0,0,1,.951.951l-2.217,2.217,2.217,2.217a.675.675,0,0,1,0,.951A.668.668,0,0,1,14.342,15.293Z" transform="translate(-3.375 -3.375)" fill="red"/>
</svg>
