<svg xmlns="http://www.w3.org/2000/svg" width="19.406" height="21.562" viewBox="0 0 19.406 21.562">
  <path id="Icon_material-date-range" data-name="Icon material-date-range" d="M10.969,12.7H8.812v2.156h2.156Zm4.312,0H13.125v2.156h2.156Zm4.312,0H17.437v2.156h2.156Zm2.156-7.547H20.671V3H18.515V5.156H9.89V3H7.734V5.156H6.656A2.146,2.146,0,0,0,4.511,7.312L4.5,22.406a2.156,2.156,0,0,0,2.156,2.156H21.749a2.163,2.163,0,0,0,2.156-2.156V7.312A2.163,2.163,0,0,0,21.749,5.156Zm0,17.249H6.656V10.547H21.749Z" transform="translate(-4.5 -3)" fill="#039"/>
</svg>
