<?xml version="1.0" encoding="utf-8"?>
<!-- Generator: Adobe Illustrator 18.0.0, SVG Export Plug-In . SVG Version: 6.00 Build 0)  -->
<!DOCTYPE svg PUBLIC "-//W3C//DTD SVG 1.1//EN" "http://www.w3.org/Graphics/SVG/1.1/DTD/svg11.dtd">
<svg version="1.1" id="Layer_1" xmlns="http://www.w3.org/2000/svg" xmlns:xlink="http://www.w3.org/1999/xlink" x="0px" y="0px"
	 viewBox="0 0 30.2 29.7" enable-background="new 0 0 30.2 29.7" xml:space="preserve">
<path id="Icon_simple-microsoftexcel" fill="#FFFFFF" d="M29.7,3.6H19.5v1.9h3v3h-3v0.9h3v3h-3v1h3v2.8h-3v1.1h3v2.8h-3v1.1h3v2.8
	h-3v2.1h10.1c0.2,0,0.3-0.2,0.4-0.6c0.1-0.3,0.1-0.5,0.2-0.8V4c0-0.2-0.1-0.3-0.2-0.3C29.9,3.6,29.8,3.6,29.7,3.6z M28.3,24h-4.9
	v-2.8h4.9C28.3,21.2,28.3,24,28.3,24z M28.3,20.1h-4.9v-2.8h4.9V20.1z M28.3,16.2h-4.9v-2.8h4.9C28.3,13.4,28.3,16.2,28.3,16.2z
	 M28.3,12.4h-4.9v-3h4.9V12.4L28.3,12.4L28.3,12.4z M28.3,8.5h-4.9V5.5h4.9V8.5L28.3,8.5z M0,3.2v23.4l17.8,3.1V0L0,3.2L0,3.2z
	 M10.6,20.9c-0.1-0.2-0.4-1-1-2.3c-0.6-1.4-0.9-2.2-1-2.4h0l-1.9,4.5l-2.6-0.2l3-5.7L4.4,9.2L7,9l1.7,4.4h0l1.9-4.6l2.7-0.2
	l-3.2,6.1l3.3,6.3L10.6,20.9L10.6,20.9z"/>
</svg>
