<svg xmlns="http://www.w3.org/2000/svg" width="30.223" height="29.672" viewBox="0 0 30.223 29.672">
  <path id="Icon_simple-microsoftexcel" data-name="Icon simple-microsoftexcel" d="M29.66,3.959H19.535V5.833H22.52V8.8H19.535v.944H22.52V12.71H19.535v.971H22.52v2.807H19.535v1.125H22.52v2.813H19.535V21.55H22.52v2.83H19.535v2.064H29.66c.16-.048.293-.237.4-.564a2.761,2.761,0,0,0,.162-.8V4.3c0-.161-.055-.258-.162-.292A1.385,1.385,0,0,0,29.66,3.959ZM28.347,24.377H23.49V21.55h4.857v2.827Zm0-3.952H23.49V17.611h4.857Zm0-3.939H23.49V13.692h4.857v2.794Zm0-3.778H23.49V9.744h4.857V12.71h0Zm0-3.928H23.49V5.834h4.857V8.781ZM0,3.492V26.916L17.832,30V.329L0,3.5Zm10.569,17.72q-.1-.276-.955-2.346c-.565-1.38-.907-2.184-1.006-2.413H8.577L6.664,21l-2.556-.173L7.14,15.166,4.363,9.5,6.97,9.361,8.693,13.8h.034L10.673,9.16l2.694-.17-3.207,6.133,3.306,6.256-2.9-.17Z" transform="translate(0 -0.328)" fill="#0c9756"/>
</svg>
