<svg xmlns="http://www.w3.org/2000/svg" width="24.738" height="16.492" viewBox="0 0 24.738 16.492">
  <path id="Icon_awesome-eye" data-name="Icon awesome-eye" d="M24.589,12.119A13.775,13.775,0,0,0,12.369,4.5,13.777,13.777,0,0,0,.149,12.119a1.389,1.389,0,0,0,0,1.254,13.775,13.775,0,0,0,12.22,7.619,13.777,13.777,0,0,0,12.22-7.619A1.389,1.389,0,0,0,24.589,12.119Zm-12.22,6.812a6.185,6.185,0,1,1,6.185-6.185A6.185,6.185,0,0,1,12.369,18.931Zm0-10.308a4.093,4.093,0,0,0-1.087.163,2.055,2.055,0,0,1-2.873,2.873,4.114,4.114,0,1,0,3.96-3.036Z" transform="translate(0 -4.5)" fill="#006eff"/>
</svg>
