<?xml version="1.0" encoding="iso-8859-1"?>
<!-- Generator: Adobe Illustrator 18.0.0, SVG Export Plug-In . SVG Version: 6.00 Build 0)  -->
<!DOCTYPE svg PUBLIC "-//W3C//DTD SVG 1.1//EN" "http://www.w3.org/Graphics/SVG/1.1/DTD/svg11.dtd">
<svg version="1.1" id="Layer_1" xmlns="http://www.w3.org/2000/svg" xmlns:xlink="http://www.w3.org/1999/xlink" x="0px" y="0px"
	 viewBox="0 0 300 300" style="enable-background:new 0 0 300 300;" xml:space="preserve">
<path style="fill:#FFFFFF;" d="M258.398,61.523L201.035,4.102c-2.644-2.635-6.228-4.111-9.961-4.102H187.5v75h75v-3.574
	C262.499,67.712,261.024,64.15,258.398,61.523z M168.75,79.688V0H51.563C43.815-0.019,37.519,6.245,37.5,13.992
	c0,0.023,0,0.047,0,0.07v271.875c-0.019,7.747,6.245,14.043,13.992,14.063c0.023,0,0.047,0,0.07,0h196.875
	c7.747,0.019,14.043-6.245,14.063-13.992c0-0.023,0-0.047,0-0.07V93.75h-79.688C175.055,93.727,168.773,87.445,168.75,79.688z
	 M210.938,182.813v9.375c0,5.178-4.197,9.375-9.375,9.375h-37.5v37.5c0,5.178-4.197,9.375-9.375,9.375h-9.375
	c-5.178,0-9.375-4.197-9.375-9.375v-37.5h-37.5c-5.178,0-9.375-4.197-9.375-9.375v-9.375c0-5.178,4.197-9.375,9.375-9.375h37.5
	v-37.5c0-5.178,4.197-9.375,9.375-9.375h9.375c5.178,0,9.375,4.197,9.375,9.375v37.5h37.5
	C206.74,173.438,210.938,177.635,210.938,182.813z"/>
</svg>
