<?xml version="1.0" encoding="utf-8"?>
<!-- Generator: Adobe Illustrator 18.0.0, SVG Export Plug-In . SVG Version: 6.00 Build 0)  -->
<!DOCTYPE svg PUBLIC "-//W3C//DTD SVG 1.1//EN" "http://www.w3.org/Graphics/SVG/1.1/DTD/svg11.dtd">
<svg version="1.1" id="Layer_1" xmlns="http://www.w3.org/2000/svg" xmlns:xlink="http://www.w3.org/1999/xlink" x="0px" y="0px"
	 viewBox="0 0 300 300" enable-background="new 0 0 300 300" xml:space="preserve">
<path fill="#FFFFFF" d="M262.5,71.4V75h-75V0h3.6c3.7,0,7.3,1.5,9.9,4.1l57.4,57.4C261,64.1,262.5,67.7,262.5,71.4z M182.8,93.8
	h79.7v192.2c0,7.8-6.3,14.1-14.1,14.1H51.6c-7.8,0-14.1-6.3-14.1-14.1V14.1C37.5,6.3,43.8,0,51.6,0h117.2v79.7
	C168.8,87.4,175.1,93.8,182.8,93.8z M221.1,158l-16.5-16.6c-2.7-2.8-7.2-2.8-9.9,0L132.5,203l-26.9-27.2c-2.7-2.8-7.2-2.8-9.9,0
	L79,192.3c-2.8,2.7-2.8,7.2,0,9.9l48.4,48.8c2.7,2.8,7.2,2.8,9.9,0L221,168C223.8,165.3,223.8,160.8,221.1,158L221.1,158z"/>
</svg>
