<?xml version="1.0" encoding="iso-8859-1"?>
<!-- Generator: Adobe Illustrator 18.0.0, SVG Export Plug-In . SVG Version: 6.00 Build 0)  -->
<!DOCTYPE svg PUBLIC "-//W3C//DTD SVG 1.1//EN" "http://www.w3.org/Graphics/SVG/1.1/DTD/svg11.dtd">
<svg version="1.1" id="Layer_1" xmlns="http://www.w3.org/2000/svg" xmlns:xlink="http://www.w3.org/1999/xlink" x="0px" y="0px"
	 viewBox="0 0 300 300" style="enable-background:new 0 0 300 300;" xml:space="preserve">
<path style="fill:#FFFFFF;" d="M254.238,57.363l-49.16-49.16c-5.273-5.273-12.422-8.262-19.863-8.262H65.625
	C50.098,0,37.5,12.598,37.5,28.125v243.75C37.5,287.402,50.098,300,65.625,300h168.75c15.527,0,28.125-12.598,28.125-28.125V77.285
	C262.5,69.844,259.512,62.637,254.238,57.363z M240.996,70.664c1.23,1.23,2.051,2.695,2.461,4.336H187.5V19.043
	c1.641,0.41,3.105,1.23,4.336,2.461L240.996,70.664z M234.375,281.25H65.625c-5.156,0-9.375-4.219-9.375-9.375V28.125
	c0-5.156,4.219-9.375,9.375-9.375H168.75v60.938c0,7.793,6.27,14.063,14.063,14.063h60.938v178.125
	C243.75,277.031,239.531,281.25,234.375,281.25z M206.25,138.281v4.688c0,3.867-3.164,7.031-7.031,7.031h-98.438
	c-3.867,0-7.031-3.164-7.031-7.031v-4.688c0-3.867,3.164-7.031,7.031-7.031h98.438C203.086,131.25,206.25,134.414,206.25,138.281z
	 M206.25,175.781v4.688c0,3.867-3.164,7.031-7.031,7.031h-98.438c-3.867,0-7.031-3.164-7.031-7.031v-4.688
	c0-3.867,3.164-7.031,7.031-7.031h98.438C203.086,168.75,206.25,171.914,206.25,175.781z M206.25,213.281v4.688
	c0,3.867-3.164,7.031-7.031,7.031h-98.438c-3.867,0-7.031-3.164-7.031-7.031v-4.688c0-3.867,3.164-7.031,7.031-7.031h98.438
	C203.086,206.25,206.25,209.414,206.25,213.281z"/>
</svg>
