<?xml version="1.0" encoding="utf-8"?>
<!-- Generator: Adobe Illustrator 18.0.0, SVG Export Plug-In . SVG Version: 6.00 Build 0)  -->
<!DOCTYPE svg PUBLIC "-//W3C//DTD SVG 1.1//EN" "http://www.w3.org/Graphics/SVG/1.1/DTD/svg11.dtd">
<svg version="1.1" id="Layer_1" xmlns="http://www.w3.org/2000/svg" xmlns:xlink="http://www.w3.org/1999/xlink" x="0px" y="0px"
	 viewBox="0 0 300 300" enable-background="new 0 0 300 300" xml:space="preserve">
<path fill="#FFFFFF" d="M168.8,79.7V0H51.6c-7.8,0-14.1,6.3-14.1,14.1v271.9c0,7.8,6.3,14.1,14.1,14.1h196.9
	c7.8,0,14.1-6.3,14.1-14.1V93.8h-79.7C175.1,93.8,168.8,87.4,168.8,79.7z M206.3,218c0,3.9-3.2,7-7,7h-98.4c-3.9,0-7-3.2-7-7v-4.7
	c0-3.9,3.2-7,7-7h98.4c3.9,0,7,3.2,7,7V218z M206.3,180.5c0,3.9-3.2,7-7,7h-98.4c-3.9,0-7-3.2-7-7v-4.7c0-3.9,3.2-7,7-7h98.4
	c3.9,0,7,3.2,7,7V180.5z M206.3,138.3v4.7c0,3.9-3.2,7-7,7h-98.4c-3.9,0-7-3.2-7-7v-4.7c0-3.9,3.2-7,7-7h98.4
	C203.1,131.3,206.3,134.4,206.3,138.3z M262.5,71.4V75h-75V0h3.6c3.8,0,7.3,1.5,10,4.1l57.4,57.4C261,64.2,262.5,67.7,262.5,71.4z"
	/>
</svg>
