<svg id="icon_text" xmlns="http://www.w3.org/2000/svg" width="30" height="23.116" viewBox="0 0 30 23.116">
  <path id="Icon_awesome-pencil-alt" data-name="Icon awesome-pencil-alt" d="M22.479,6.417,20.4,8.5a.542.542,0,0,1-.768,0L14.619,3.487a.542.542,0,0,1,0-.768L16.7.638a2.172,2.172,0,0,1,3.066,0l2.713,2.713A2.164,2.164,0,0,1,22.479,6.417Zm-9.648-1.91L.976,16.363.019,21.849A1.085,1.085,0,0,0,1.274,23.1l5.485-.962L18.615,10.286a.542.542,0,0,0,0-.768L13.6,4.508a.548.548,0,0,0-.772,0ZM5.6,15.347a.629.629,0,0,1,0-.894L12.556,7.5a.632.632,0,1,1,.894.894L6.5,15.347a.629.629,0,0,1-.894,0Zm-1.63,3.8H6.141v1.639l-2.912.51-1.4-1.4.51-2.912H3.974Z" transform="translate(-0.002 -0.005)" fill="#8d8d8d"/>
  <circle id="Ellipse_4" data-name="Ellipse 4" cx="2" cy="2" r="2" transform="translate(14 19.116)" fill="#8d8d8d"/>
  <circle id="Ellipse_5" data-name="Ellipse 5" cx="2" cy="2" r="2" transform="translate(20 19.116)" fill="#8d8d8d"/>
  <circle id="Ellipse_6" data-name="Ellipse 6" cx="2" cy="2" r="2" transform="translate(26 19.116)" fill="#8d8d8d"/>
</svg>
