<svg xmlns="http://www.w3.org/2000/svg" width="29.25" height="29.257" viewBox="0 0 29.25 29.257">
  <g id="Icon_ionic-md-photos" data-name="Icon ionic-md-photos" transform="translate(-3.375 -3.375)">
    <path id="Path_1816" data-name="Path 1816" d="M28.125,29.623V10.877a3.01,3.01,0,0,0-3-3H6.377a3.01,3.01,0,0,0-3,3V29.63a3.01,3.01,0,0,0,3,3H25.13A3.019,3.019,0,0,0,28.125,29.623ZM11.06,21.375l3.185,4.5,4.69-6.75,6.188,9H6.377Z" fill="#fff"/>
    <path id="Path_1817" data-name="Path 1817" d="M29.623,3.375H10.877a3.01,3.01,0,0,0-3,3V6.75H26.248a3.01,3.01,0,0,1,3,3V28.125h.373a3.01,3.01,0,0,0,3-3V6.377A3.01,3.01,0,0,0,29.623,3.375Z" fill="#fff"/>
  </g>
</svg>
