<svg xmlns="http://www.w3.org/2000/svg" width="33.577" height="23.115" viewBox="0 0 33.577 23.115">
  <path id="icon_iban" d="M0,22.567a2.8,2.8,0,0,0,2.8,2.8H30.779a2.8,2.8,0,0,0,2.8-2.8V12.308H0ZM11.192,18.6a.7.7,0,0,1,.7-.7H19.82a.7.7,0,0,1,.7.7v2.332a.7.7,0,0,1-.7.7H11.892a.7.7,0,0,1-.7-.7Zm-7.462,0a.7.7,0,0,1,.7-.7h4.2a.7.7,0,0,1,.7.7v2.332a.7.7,0,0,1-.7.7H4.43a.7.7,0,0,1-.7-.7ZM33.577,5.048v2.8H0v-2.8a2.8,2.8,0,0,1,2.8-2.8H30.779A2.8,2.8,0,0,1,33.577,5.048Z" transform="translate(0 -2.25)" fill="#8d8d8d"/>
</svg>
