<svg xmlns="http://www.w3.org/2000/svg" width="27.229" height="20.422" viewBox="0 0 27.229 20.422">
  <path id="Icon_awesome-envelope" data-name="Icon awesome-envelope" d="M26.713,11.243a.32.32,0,0,1,.516.25V22.369a2.553,2.553,0,0,1-2.553,2.553H2.553A2.553,2.553,0,0,1,0,22.369V11.5a.318.318,0,0,1,.516-.25c1.191.925,2.771,2.1,8.2,6.041,1.122.819,3.015,2.542,4.9,2.531,1.9.016,3.829-1.744,4.909-2.531C23.948,13.349,25.522,12.169,26.713,11.243Zm-13.1,6.871c1.234.021,3.01-1.553,3.9-2.2,7.057-5.121,7.594-5.568,9.222-6.844a1.273,1.273,0,0,0,.489-1.005V7.053A2.553,2.553,0,0,0,24.676,4.5H2.553A2.553,2.553,0,0,0,0,7.053v1.01A1.28,1.28,0,0,0,.489,9.068c1.627,1.271,2.164,1.723,9.222,6.844C10.6,16.562,12.381,18.136,13.615,18.115Z" transform="translate(0 -4.5)" fill="#a1a1a1"/>
</svg>
