<svg xmlns="http://www.w3.org/2000/svg" width="23.847" height="23.847" viewBox="0 0 23.847 23.847">
  <path id="Icon_awesome-download" data-name="Icon awesome-download" d="M10.061,0h3.726A1.115,1.115,0,0,1,14.9,1.118V8.943h4.085a.93.93,0,0,1,.657,1.588L12.562,17.62a.9.9,0,0,1-1.272,0L4.2,10.531a.93.93,0,0,1,.657-1.588H8.943V1.118A1.115,1.115,0,0,1,10.061,0ZM23.847,17.513v5.217a1.115,1.115,0,0,1-1.118,1.118H1.118A1.115,1.115,0,0,1,0,22.729V17.513a1.115,1.115,0,0,1,1.118-1.118H7.951l2.282,2.282a2.387,2.387,0,0,0,3.381,0L15.9,16.395h6.833A1.115,1.115,0,0,1,23.847,17.513Zm-5.775,4.1a.932.932,0,1,0-.932.932A.934.934,0,0,0,18.072,21.611Zm2.981,0a.932.932,0,1,0-.932.932A.934.934,0,0,0,21.053,21.611Z" fill="#034b95"/>
</svg>
