<svg xmlns="http://www.w3.org/2000/svg" width="31" height="27.125" viewBox="0 0 31 27.125">
  <path id="icon_companie" d="M19.375,20.656a.968.968,0,0,1-.969.969H12.594a.968.968,0,0,1-.969-.969V17.75H0v8.719a2.98,2.98,0,0,0,2.906,2.906H28.094A2.98,2.98,0,0,0,31,26.469V17.75H19.375ZM28.094,8.063H23.25V5.156A2.98,2.98,0,0,0,20.344,2.25H10.656A2.98,2.98,0,0,0,7.75,5.156V8.063H2.906A2.98,2.98,0,0,0,0,10.969v4.844H31V10.969A2.98,2.98,0,0,0,28.094,8.063Zm-8.719,0h-7.75V6.125h7.75Z" transform="translate(0 -2.25)" fill="#8d8d8d"/>
</svg>
