<svg xmlns="http://www.w3.org/2000/svg" width="23.956" height="23.956" viewBox="0 0 23.956 23.956">
  <path id="Icon_awesome-phone-alt" data-name="Icon awesome-phone-alt" d="M23.272,16.928l-5.24-2.246a1.123,1.123,0,0,0-1.31.323L14.4,17.841A17.343,17.343,0,0,1,6.111,9.55L8.946,7.229a1.12,1.12,0,0,0,.323-1.31L7.023.679A1.13,1.13,0,0,0,5.736.029L.87,1.152A1.123,1.123,0,0,0,0,2.246a21.708,21.708,0,0,0,21.71,21.71,1.123,1.123,0,0,0,1.095-.87l1.123-4.866a1.137,1.137,0,0,0-.656-1.291Z" transform="translate(0 0)" fill="#a1a1a1"/>
</svg>
