<svg xmlns="http://www.w3.org/2000/svg" width="16.834" height="16.834" viewBox="0 0 16.834 16.834">
  <path id="Icon_feather-message-circle" data-name="Icon feather-message-circle" d="M4.5,11.977a7.372,7.372,0,0,0,.792,3.343,7.477,7.477,0,0,0,6.685,4.134,7.372,7.372,0,0,0,3.343-.792l5.014,1.671L18.663,15.32a7.372,7.372,0,0,0,.792-3.343A7.477,7.477,0,0,0,15.32,5.292,7.372,7.372,0,0,0,11.977,4.5h-.44A7.46,7.46,0,0,0,4.5,11.537Z" transform="translate(-4 -4)" fill="none" stroke="#000" stroke-linecap="round" stroke-linejoin="round" stroke-width="1"/>
</svg>
