<?xml version="1.0" encoding="utf-8"?>
<!-- Generator: Adobe Illustrator 18.0.0, SVG Export Plug-In . SVG Version: 6.00 Build 0)  -->
<!DOCTYPE svg PUBLIC "-//W3C//DTD SVG 1.1//EN" "http://www.w3.org/Graphics/SVG/1.1/DTD/svg11.dtd">
<svg version="1.1" id="Layer_1" xmlns="http://www.w3.org/2000/svg" xmlns:xlink="http://www.w3.org/1999/xlink" x="0px" y="0px"
	 viewBox="0 0 300 300" enable-background="new 0 0 300 300" xml:space="preserve">
<path fill="#888888" d="M44.1,273.1c-34.2-35.3-33.6-92.3,0.8-127.5L167.8,19.9c26-26.6,68.2-26.6,94.1,0
	c25.7,26.3,25.7,68.7,0,95.1L154.8,224.5c-17.5,17.9-46.1,17.6-63.3-0.6c-16.6-17.6-16-45.4,0.9-62.7l84.2-86
	c3.6-3.7,9.6-3.8,13.3-0.1l13.4,13.1c3.7,3.6,3.8,9.6,0.1,13.3l-84.2,86c-2.9,3-3.1,7.9-0.4,10.7c2.6,2.7,6.6,2.8,9.2,0.1
	L235.1,88.8c11.5-11.8,11.5-30.9,0-42.7c-11.2-11.5-29.3-11.5-40.5,0L71.7,171.9C51.3,192.7,51,226.4,71,247
	c19.9,20.6,52.1,20.6,72.1,0.2l100.8-103.1c3.6-3.7,9.6-3.8,13.3-0.1l13.4,13.1c3.7,3.6,3.8,9.6,0.2,13.3L169.9,273.4
	C135,309.1,78.6,308.7,44.1,273.1L44.1,273.1z"/>
</svg>
