<svg xmlns="http://www.w3.org/2000/svg" width="29.422" height="29.422" viewBox="0 0 29.422 29.422">
  <g id="pencil" transform="translate(0 -0.002)">
    <g id="Group_376" data-name="Group 376" transform="translate(0 0.002)">
      <path id="Path_123" data-name="Path 123" d="M28.638,4.777,24.626.761a2.735,2.735,0,0,0-3.784,0L2.868,18.914A.673.673,0,0,0,2.7,19.2L.025,28.571a.669.669,0,0,0,.827.827l9.361-2.677a.672.672,0,0,0,.287-.169L28.638,8.562a2.678,2.678,0,0,0,0-3.785Zm-10.71.851,2.461,2.461L7.538,20.94l-.922-1.845a.669.669,0,0,0-.6-.37H4.947ZM1.642,27.781l.871-3.049L4.691,26.91Zm7.719-2.205-3.2.914L2.933,23.261l.914-3.2H5.6l1.153,2.305a.669.669,0,0,0,.3.3l2.305,1.153v1.757Zm1.337-1.1V23.406a.669.669,0,0,0-.37-.6l-1.845-.922L21.335,9.034,23.8,11.5Zm17-16.844-2.948,2.922L18.869,4.678l2.92-2.946a1.369,1.369,0,0,1,1.891,0l4.012,4.012a1.337,1.337,0,0,1,0,1.889Z" transform="translate(0 -0.002)"/>
    </g>
  </g>
</svg>
