<?xml version="1.0" encoding="iso-8859-1"?>
<!-- Generator: Adobe Illustrator 18.0.0, SVG Export Plug-In . SVG Version: 6.00 Build 0)  -->
<!DOCTYPE svg PUBLIC "-//W3C//DTD SVG 1.1//EN" "http://www.w3.org/Graphics/SVG/1.1/DTD/svg11.dtd">
<svg version="1.1" id="Layer_1" xmlns="http://www.w3.org/2000/svg" xmlns:xlink="http://www.w3.org/1999/xlink" x="0px" y="0px"
	 viewBox="0 0 300 300" style="enable-background:new 0 0 300 300;" xml:space="preserve">
<path style="fill:#006EFF;" d="M203.36,149.995c0.014,0.22,0.028,0.441,0.042,0.661c-0.369,0.1-0.732,0.233-1.108,0.295
	c-9.804,1.612-19.614,3.19-29.414,4.827c-41.461,6.922-82.916,13.882-124.388,20.733c-1.947,0.322-2.725,1.093-3.363,2.839
	c-4.344,11.871-8.806,23.698-13.233,35.538c-6.831,18.27-13.694,36.528-20.482,54.814c-3.225,8.689,0.671,17.157,8.919,19.458
	c4.336,1.21,8.351,0.126,12.305-1.866c43.029-21.68,86.089-43.302,129.135-64.949c40.221-20.227,80.429-40.479,120.666-60.675
	c3.522-1.768,6.028-4.224,7.06-8.087c1.845-6.902-1.443-13.119-8.997-16.915C198.493,95.447,116.484,54.226,34.468,13.02
	c-1.553-0.78-3.136-1.611-4.803-2.036c-6.042-1.542-11.539-0.415-16.005,4.1c-3.9,3.943-4.909,8.736-2.984,13.914
	c11.502,30.95,23.084,61.871,34.592,92.819c0.578,1.553,1.424,2.136,3.047,2.361c4.648,0.644,9.263,1.528,13.893,2.299
	c29.51,4.91,59.023,9.81,88.532,14.725C168.282,144.123,185.82,147.063,203.36,149.995z"/>
</svg>
