<svg xmlns="http://www.w3.org/2000/svg" width="58.773" height="63.001" viewBox="0 0 58.773 63.001">
  <g id="taxe_si_impozite" data-name="taxe si impozite" transform="translate(0)">
    <path id="Path_1871" data-name="Path 1871" d="M75.031,272.532a.925.925,0,0,0-.925.925v24.989a1.705,1.705,0,0,1-1.7,1.7H50.627a1.705,1.705,0,0,1-1.7-1.7v-2.458a.925.925,0,1,0-1.849,0v2.458a3.529,3.529,0,0,0,.436,1.7H19.341a.309.309,0,0,1-.308-.308V277.532a.925.925,0,1,0-1.849,0v22.309A2.16,2.16,0,0,0,19.341,302H72.4a3.557,3.557,0,0,0,3.553-3.553V273.457A.924.924,0,0,0,75.031,272.532Z" transform="translate(-17.183 -238.997)"/>
    <path id="Path_1872" data-name="Path 1872" d="M72.4,19.858H63.465V12.383a.931.931,0,0,0-.271-.654L51.736.271A.931.931,0,0,0,51.082,0H19.342a2.16,2.16,0,0,0-2.158,2.158V34.836a.925.925,0,0,0,1.849,0V2.158a.309.309,0,0,1,.308-.308H50.157V9.917a3.394,3.394,0,0,0,3.391,3.39h8.068v6.55H50.628a3.557,3.557,0,0,0-3.553,3.553v.145H32.422a.925.925,0,1,0,0,1.849H47.075v6.281H32.422a.925.925,0,0,0,0,1.849H47.075v6.281H32.422a.925.925,0,0,0,0,1.849H47.075v6.281H32.422a.925.925,0,1,0,0,1.849H47.075v3.5a.925.925,0,0,0,1.849,0V23.41a1.705,1.705,0,0,1,1.7-1.7H72.4a1.705,1.705,0,0,1,1.7,1.7v7.35a.925.925,0,0,0,1.849,0V23.41A3.557,3.557,0,0,0,72.4,19.858Zm-20.4-9.941V3.157l8.3,8.3h-6.76A1.543,1.543,0,0,1,52.007,9.917Z" transform="translate(-17.184 0)"/>
    <path id="Path_1873" data-name="Path 1873" d="M317.862,198.187a2.16,2.16,0,0,0-2.158-2.158H300.352a2.16,2.16,0,0,0-2.158,2.158v5.221a2.16,2.16,0,0,0,2.158,2.158H315.7a2.16,2.16,0,0,0,2.158-2.158Zm-1.849,5.221a.309.309,0,0,1-.308.308H300.352a.309.309,0,0,1-.308-.308v-5.221a.309.309,0,0,1,.308-.308H315.7a.309.309,0,0,1,.308.308Z" transform="translate(-263.616 -171.908)"/>
    <path id="Path_1874" data-name="Path 1874" d="M298.194,307.979a2.067,2.067,0,0,0,2.065,2.065h1.761a2.067,2.067,0,0,0,2.064-2.065v-1.761a2.067,2.067,0,0,0-2.065-2.065h-1.761a2.067,2.067,0,0,0-2.065,2.065Zm1.849-1.761a.215.215,0,0,1,.215-.215h1.761a.216.216,0,0,1,.215.215v1.761a.216.216,0,0,1-.215.215h-1.761a.216.216,0,0,1-.215-.215Z" transform="translate(-263.616 -266.728)"/>
    <path id="Path_1875" data-name="Path 1875" d="M360.072,306.22a2.067,2.067,0,0,0-2.065-2.065h-1.761a2.067,2.067,0,0,0-2.065,2.065v1.761a2.067,2.067,0,0,0,2.065,2.065h1.761a2.067,2.067,0,0,0,2.065-2.065Zm-1.849,1.761a.216.216,0,0,1-.215.215h-1.761a.216.216,0,0,1-.215-.215v-1.761a.216.216,0,0,1,.215-.215h1.761a.216.216,0,0,1,.215.215v1.761Z" transform="translate(-312.715 -266.729)"/>
    <path id="Path_1876" data-name="Path 1876" d="M416.059,306.22a2.067,2.067,0,0,0-2.065-2.065h-1.761a2.067,2.067,0,0,0-2.064,2.065v1.761a2.067,2.067,0,0,0,2.064,2.065h1.761a2.067,2.067,0,0,0,2.064-2.065Zm-1.849,1.761a.216.216,0,0,1-.215.215h-1.761a.216.216,0,0,1-.215-.215v-1.761a.216.216,0,0,1,.215-.215h1.761a.216.216,0,0,1,.215.215Z" transform="translate(-361.813 -266.729)"/>
    <path id="Path_1877" data-name="Path 1877" d="M298.194,369.25a2.067,2.067,0,0,0,2.065,2.064h1.761a2.067,2.067,0,0,0,2.064-2.065V367.49a2.067,2.067,0,0,0-2.065-2.065h-1.761a2.067,2.067,0,0,0-2.065,2.065Zm1.849-1.761a.215.215,0,0,1,.215-.215h1.761a.215.215,0,0,1,.215.215v1.761a.216.216,0,0,1-.215.215h-1.761a.216.216,0,0,1-.215-.215Z" transform="translate(-263.616 -320.46)"/>
    <path id="Path_1878" data-name="Path 1878" d="M360.072,367.49a2.067,2.067,0,0,0-2.065-2.065h-1.761a2.067,2.067,0,0,0-2.065,2.065v1.761a2.067,2.067,0,0,0,2.065,2.064h1.761a2.067,2.067,0,0,0,2.065-2.065Zm-1.849,1.761a.216.216,0,0,1-.215.215h-1.761a.216.216,0,0,1-.215-.215V367.49a.216.216,0,0,1,.215-.215h1.761a.215.215,0,0,1,.215.215v1.761Z" transform="translate(-312.715 -320.46)"/>
    <path id="Path_1879" data-name="Path 1879" d="M298.194,430.52a2.067,2.067,0,0,0,2.065,2.065h1.761a2.067,2.067,0,0,0,2.064-2.065v-1.761a2.067,2.067,0,0,0-2.065-2.064h-1.761a2.067,2.067,0,0,0-2.065,2.064Zm1.849-1.761a.215.215,0,0,1,.215-.215h1.761a.215.215,0,0,1,.215.215v1.761a.216.216,0,0,1-.215.215h-1.761a.216.216,0,0,1-.215-.215Z" transform="translate(-263.616 -374.191)"/>
    <path id="Path_1880" data-name="Path 1880" d="M358.007,426.7h-1.761a2.067,2.067,0,0,0-2.065,2.064v1.761a2.067,2.067,0,0,0,2.065,2.065h1.761a2.067,2.067,0,0,0,2.065-2.065V428.76A2.067,2.067,0,0,0,358.007,426.7Zm.215,3.825a.216.216,0,0,1-.215.215h-1.761a.216.216,0,0,1-.215-.215V428.76a.216.216,0,0,1,.215-.215h1.761a.215.215,0,0,1,.215.215v1.761Z" transform="translate(-312.715 -374.191)"/>
    <path id="Path_1881" data-name="Path 1881" d="M413.82,365.425h-1.412a2.242,2.242,0,0,0-2.239,2.239v8.951a2.242,2.242,0,0,0,2.239,2.239h1.412a2.242,2.242,0,0,0,2.239-2.239v-8.951A2.242,2.242,0,0,0,413.82,365.425Zm.39,11.19a.39.39,0,0,1-.39.39h-1.412a.39.39,0,0,1-.39-.39v-8.951a.39.39,0,0,1,.39-.39h1.412a.39.39,0,0,1,.39.39Z" transform="translate(-361.813 -320.46)"/>
    <path id="Path_1882" data-name="Path 1882" d="M70.618,127.2h3.691a.925.925,0,0,0,0-1.849H70.618a.925.925,0,1,0,0,1.849Z" transform="translate(-63.232 -109.93)"/>
    <path id="Path_1883" data-name="Path 1883" d="M134.432,127.2h17.8a.925.925,0,0,0,0-1.849h-17.8a.925.925,0,0,0,0,1.849Z" transform="translate(-119.194 -109.93)"/>
    <path id="Path_1884" data-name="Path 1884" d="M70.618,193.277h3.691a.925.925,0,1,0,0-1.849H70.618a.925.925,0,1,0,0,1.849Z" transform="translate(-63.232 -167.873)"/>
    <path id="Path_1885" data-name="Path 1885" d="M70.618,259.351h3.691a.925.925,0,0,0,0-1.849H70.618a.925.925,0,0,0,0,1.849Z" transform="translate(-63.232 -225.817)"/>
    <path id="Path_1886" data-name="Path 1886" d="M70.618,325.425h3.691a.925.925,0,1,0,0-1.849H70.618a.925.925,0,1,0,0,1.849Z" transform="translate(-63.232 -283.76)"/>
    <path id="Path_1887" data-name="Path 1887" d="M70.618,391.5h3.691a.925.925,0,1,0,0-1.849H70.618a.925.925,0,1,0,0,1.849Z" transform="translate(-63.232 -341.704)"/>
  </g>
</svg>
