<?xml version="1.0" encoding="utf-8"?>
<!-- Generator: Adobe Illustrator 18.0.0, SVG Export Plug-In . SVG Version: 6.00 Build 0)  -->
<!DOCTYPE svg PUBLIC "-//W3C//DTD SVG 1.1//EN" "http://www.w3.org/Graphics/SVG/1.1/DTD/svg11.dtd">
<svg version="1.1" id="Layer_1" xmlns="http://www.w3.org/2000/svg" xmlns:xlink="http://www.w3.org/1999/xlink" x="0px" y="0px"
	 viewBox="-16 76 662 880" enable-background="new -16 76 662 880" xml:space="preserve">
<path d="M118.9,643.1L-2.5,946l228.6-232.9c-17.9-9.3-36.4-19.9-53.9-31.4C153.3,669.3,135.6,656.7,118.9,643.1z M495.3,531.4
	c-5-21.9-9.5-59.2-5.6-104.8l35-53.6c13.1-6.3,31.8-26.3,48-30.7c20.1-2.9,35.7-10.8,44.6-24.4c29-44.4,0.9-113.1-94.8-175.6
	c-95.6-62.5-175.8-64.6-204.8-20.2c-8.8,13.4-9.9,30.6-4.7,49.9c3.1,19.8-1.8,44.2-2.7,61l-35,53.6
	c-61.4,34.7-121.3,35.7-121.3,35.7l0.5,0.4c-38.6,0.7-68.7,12.4-84.1,36C30,420.9,74.4,537.6,207.5,624.5
	c133.1,87,257.5,80.6,298.1,18.4C523.9,614.8,518.7,574.8,495.3,531.4z"/>
</svg>
