<svg xmlns="http://www.w3.org/2000/svg" width="31.17" height="29.517" viewBox="0 0 31.17 29.517">
  <path id="Icon_simple-microsoftword" data-name="Icon simple-microsoftword" d="M31.17,4.977V26.468a.582.582,0,0,1-.194.449.659.659,0,0,1-.468.179H19.392V24.116h9.068V22.758H19.385V21.1h9.068V19.741H19.391V18.066h9.066v-1.34H19.391V15.046h9.066V13.69H19.391V12.029h9.066V10.674H19.391V8.98h9.066V7.688H19.391V4.321h11.12a.586.586,0,0,1,.465.194.6.6,0,0,1,.194.462ZM17.729.961V30.472L0,27.4V4.112L17.729.955ZM15.053,9.673l-2.22.136L11.41,18.622h-.032c-.07-.417-.331-1.877-.8-4.373l-.83-4.238-2.083.1-.834,4.134c-.487,2.408-.759,3.809-.83,4.2H5.982L4.716,10.334l-1.909.1L4.852,20.674l2.122.136.8-3.985c.468-2.338.74-3.7.8-4.068h.058c.079.4.332,1.785.8,4.169l.8,4.1,2.3.136L15.1,9.67h-.045Z" transform="translate(0 -0.956)" fill="#006eff"/>
</svg>
