<svg xmlns="http://www.w3.org/2000/svg" width="30" height="33.875" viewBox="0 0 30 33.875">
  <g id="xml-file-format-symbol" transform="translate(-31.504)">
    <path id="Path_122" data-name="Path 122" d="M59.606,12.117h-.813V8.192a.574.574,0,0,0-.007-.074.651.651,0,0,0-.158-.43L52.1.227l-.005,0a.653.653,0,0,0-.132-.111C51.945.1,51.93.094,51.915.086a.7.7,0,0,0-.131-.055L51.749.019A.673.673,0,0,0,51.6,0H35.544a1.33,1.33,0,0,0-1.328,1.329V12.117H33.4a1.9,1.9,0,0,0-1.9,1.9v9.874a1.9,1.9,0,0,0,1.9,1.9h.813v6.759a1.33,1.33,0,0,0,1.328,1.329H57.464a1.33,1.33,0,0,0,1.328-1.329V25.788h.813a1.9,1.9,0,0,0,1.9-1.9V14.016A1.9,1.9,0,0,0,59.606,12.117ZM35.544,1.329H50.932v6.8a.664.664,0,0,0,.664.664h5.868v3.328H35.544ZM52.293,23.034H50.322l-.133-3.415c-.04-1.072-.08-2.369-.08-3.666H50.07c-.278,1.139-.649,2.409-.992,3.454l-1.085,3.481H46.417l-.953-3.454c-.291-1.045-.595-2.316-.807-3.481h-.026c-.053,1.2-.093,2.581-.159,3.692l-.158,3.388H42.447l.57-8.92H45.7l.874,2.978c.278,1.032.556,2.143.754,3.188h.04c.251-1.031.556-2.209.847-3.2l.953-2.964H51.8Zm-18.422,0,2.58-4.513-2.487-4.407H36.28l.78,1.628c.265.543.463.98.676,1.482h.026c.211-.568.383-.965.608-1.482l.755-1.628h2.3l-2.515,4.354,2.647,4.566H39.231l-.808-1.615c-.331-.622-.542-1.085-.794-1.6H37.6c-.185.517-.41.98-.688,1.6l-.741,1.615h-2.3Zm23.593,9.153H35.544v-6.4H57.464v6.4Zm1.951-9.153H53.842v-8.92h2.025v7.226h3.548v1.694Z"/>
  </g>
</svg>
