<?xml version="1.0" encoding="utf-8"?>
<!-- Generator: Adobe Illustrator 18.0.0, SVG Export Plug-In . SVG Version: 6.00 Build 0)  -->
<!DOCTYPE svg PUBLIC "-//W3C//DTD SVG 1.1//EN" "http://www.w3.org/Graphics/SVG/1.1/DTD/svg11.dtd">
<svg version="1.1" id="Layer_1" xmlns="http://www.w3.org/2000/svg" xmlns:xlink="http://www.w3.org/1999/xlink" x="0px" y="0px"
	 viewBox="0 0 300 300" enable-background="new 0 0 300 300" xml:space="preserve">
<path fill="#888888" d="M262.5,71.4V75h-75V0h3.6c3.8,0,7.3,1.5,10,4.1l57.4,57.4C261,64.2,262.5,67.7,262.5,71.4z M182.8,93.8h79.7
	v192.2c0,7.8-6.3,14.1-14.1,14.1H51.6c-7.8,0-14.1-6.3-14.1-14.1V14.1C37.5,6.3,43.8,0,51.6,0h117.2v79.7
	C168.8,87.4,175.1,93.8,182.8,93.8z M147.9,158l-55.7,55.7l-3.2,28.2c-0.4,3.7,2.8,7,6.6,6.6l28.2-3.2l55.7-55.7
	c1.2-1.2,1.2-3,0-4.2L152.1,158C150.9,156.8,149.1,156.8,147.9,158L147.9,158z M212.2,140.2l-14.9-14.9c-4.6-4.6-12.1-4.6-16.8,0
	l-15.2,15.2c-1.2,1.2-1.2,3,0,4.2l27.4,27.4c1.2,1.2,3,1.2,4.2,0l15.2-15.2C216.8,152.3,216.8,144.8,212.2,140.2z"/>
</svg>
