<svg xmlns="http://www.w3.org/2000/svg" width="22.5" height="30" viewBox="0 0 22.5 30">
  <path id="Icon_awesome-file-pdf" data-name="Icon awesome-file-pdf" d="M10.658,15.006a5.653,5.653,0,0,1-.117-2.748C11.033,12.258,10.986,14.42,10.658,15.006Zm-.1,2.766a27.037,27.037,0,0,1-1.664,3.674,21.576,21.576,0,0,1,3.686-1.283A7.59,7.59,0,0,1,10.559,17.771ZM5.045,25.084c0,.047.773-.316,2.045-2.355A8.1,8.1,0,0,0,5.045,25.084ZM14.531,9.375H22.5V28.594A1.4,1.4,0,0,1,21.094,30H1.406A1.4,1.4,0,0,1,0,28.594V1.406A1.4,1.4,0,0,1,1.406,0H13.125V7.969A1.41,1.41,0,0,0,14.531,9.375Zm-.469,10.066a5.881,5.881,0,0,1-2.5-3.152,8.422,8.422,0,0,0,.363-3.762,1.467,1.467,0,0,0-2.8-.4A9.743,9.743,0,0,0,9.6,16.641a55.022,55.022,0,0,1-2.391,5.027c-.006,0-.006.006-.012.006C5.607,22.488,2.883,24.281,4,25.658a1.821,1.821,0,0,0,1.26.586c1.049,0,2.092-1.055,3.58-3.621a33.4,33.4,0,0,1,4.629-1.359,8.88,8.88,0,0,0,3.75,1.143,1.517,1.517,0,0,0,1.154-2.543c-.814-.8-3.182-.568-4.312-.422ZM22.09,6.152,16.348.41a1.405,1.405,0,0,0-1-.41H15V7.5h7.5V7.143A1.4,1.4,0,0,0,22.09,6.152ZM17.748,21.111c.24-.158-.146-.7-2.508-.527C17.414,21.51,17.748,21.111,17.748,21.111Z" fill="red"/>
</svg>
