<svg xmlns="http://www.w3.org/2000/svg" width="31.746" height="17.061" viewBox="0 0 31.746 17.061">
  <path id="Path_124" data-name="Path 124" d="M9.2-14.485V1.978H6.16V-10.593L3.014-8.3,1.628-10.868l4.8-3.617ZM22.066,1.978H12.65V-.94l3.1-3.567a28.641,28.641,0,0,0,2.3-2.943A4,4,0,0,0,18.7-9.633a2.091,2.091,0,0,0-.539-1.634,2.242,2.242,0,0,0-1.529-.474,19.018,19.018,0,0,0-3.212.3l-.528.075-.154-2.669a13.524,13.524,0,0,1,4.466-.748q4.62,0,4.62,4.714a6.806,6.806,0,0,1-.7,3.193,15.437,15.437,0,0,1-2.552,3.268l-2.53,2.594h6.028ZM23.8-13.886a11.03,11.03,0,0,1,4.521-.9A5.159,5.159,0,0,1,31.966-13.7a4.611,4.611,0,0,1,1.144,3.48,4.307,4.307,0,0,1-1.694,3.667,4.645,4.645,0,0,1,1.507,1.347,4.209,4.209,0,0,1,.451,2.22A5.751,5.751,0,0,1,32.2.98a4.869,4.869,0,0,1-3.773,1.3A13.716,13.716,0,0,1,24.4,1.629l-.7-.2.154-2.619a22.579,22.579,0,0,0,4.136.474,1.972,1.972,0,0,0,2.266-2.2,1.925,1.925,0,0,0-.583-1.472,2.14,2.14,0,0,0-1.529-.549H25.212V-7.775h2.926a1.629,1.629,0,0,0,1.287-.7,2.411,2.411,0,0,0,.561-1.547q0-1.771-2.178-1.771a16.251,16.251,0,0,0-3.234.349l-.572.1Z" transform="translate(-1.628 14.784)" fill="#a1a1a1"/>
</svg>
