<svg xmlns="http://www.w3.org/2000/svg" width="21.088" height="24.101" viewBox="0 0 21.088 24.101">
  <path id="Icon_awesome-calendar-alt" data-name="Icon awesome-calendar-alt" d="M0,21.841A2.26,2.26,0,0,0,2.259,24.1H18.829a2.26,2.26,0,0,0,2.259-2.259V9.038H0Zm15.063-9.226a.567.567,0,0,1,.565-.565h1.883a.567.567,0,0,1,.565.565V14.5a.567.567,0,0,1-.565.565H15.628a.567.567,0,0,1-.565-.565Zm0,6.025a.567.567,0,0,1,.565-.565h1.883a.567.567,0,0,1,.565.565v1.883a.567.567,0,0,1-.565.565H15.628a.567.567,0,0,1-.565-.565ZM9.038,12.615A.567.567,0,0,1,9.6,12.05h1.883a.567.567,0,0,1,.565.565V14.5a.567.567,0,0,1-.565.565H9.6a.567.567,0,0,1-.565-.565Zm0,6.025a.567.567,0,0,1,.565-.565h1.883a.567.567,0,0,1,.565.565v1.883a.567.567,0,0,1-.565.565H9.6a.567.567,0,0,1-.565-.565ZM3.013,12.615a.567.567,0,0,1,.565-.565H5.46a.567.567,0,0,1,.565.565V14.5a.567.567,0,0,1-.565.565H3.577a.567.567,0,0,1-.565-.565Zm0,6.025a.567.567,0,0,1,.565-.565H5.46a.567.567,0,0,1,.565.565v1.883a.567.567,0,0,1-.565.565H3.577a.567.567,0,0,1-.565-.565ZM18.829,3.013H16.569V.753A.755.755,0,0,0,15.816,0H14.31a.755.755,0,0,0-.753.753V3.013H7.531V.753A.755.755,0,0,0,6.778,0H5.272a.755.755,0,0,0-.753.753V3.013H2.259A2.26,2.26,0,0,0,0,5.272V7.531H21.088V5.272A2.26,2.26,0,0,0,18.829,3.013Z" fill="#a1a1a1"/>
</svg>
