<svg xmlns="http://www.w3.org/2000/svg" width="17.306" height="17.303" viewBox="0 0 17.306 17.303">
  <path id="Icon_awesome-upload" data-name="Icon awesome-upload" d="M10,12.982H7.3a.809.809,0,0,1-.811-.811V6.492H3.525A.675.675,0,0,1,3.049,5.34L8.19.2a.655.655,0,0,1,.923,0L14.257,5.34a.675.675,0,0,1-.477,1.153H10.816v5.678A.809.809,0,0,1,10,12.982Zm7.3-.27V16.5a.809.809,0,0,1-.811.811H.811A.809.809,0,0,1,0,16.5V12.712A.809.809,0,0,1,.811,11.9h4.6v.27A1.894,1.894,0,0,0,7.3,14.064H10A1.894,1.894,0,0,0,11.9,12.171V11.9h4.6A.809.809,0,0,1,17.306,12.712Zm-4.191,2.974a.676.676,0,1,0-.676.676A.678.678,0,0,0,13.115,15.686Zm2.163,0a.676.676,0,1,0-.676.676A.678.678,0,0,0,15.278,15.686Z" transform="translate(0 -0.005)"/>
</svg>
